<svg xmlns="http://www.w3.org/2000/svg" width="204" height="192" viewBox="0 0 204 192">
<g>
<path d="M 120.05 20.47 C118.43,21.31 115.16,21.95 112.80,21.89 L 108.50 21.78 L 112.93 20.91 C117.53,20.01 119.50,18.75 119.50,16.70 C119.50,16.04 120.58,15.35 121.89,15.16 C123.78,14.90 124.15,15.18 123.64,16.49 C123.29,17.41 123.00,18.34 123.00,18.56 C123.00,18.77 121.67,19.64 120.05,20.47 ZM 98.12 21.79 L 107.50 22.72 L 100.42 22.86 C96.52,22.94 93.08,22.75 92.77,22.44 C92.46,22.13 90.36,21.85 88.09,21.82 C84.64,21.77 83.88,21.39 83.39,19.42 C83.07,18.14 83.04,16.50 83.32,15.79 C83.61,15.08 83.88,15.52 83.92,16.77 C84.02,19.75 86.52,20.63 98.12,21.79 ZM 60.91 74.27 C61.41,75.59 61.46,77.25 61.02,77.97 C59.52,80.39 56.98,74.91 57.66,70.72 C58.33,66.57 60.00,65.65 60.00,69.43 C60.00,70.77 60.41,72.95 60.91,74.27 ZM 147.91 68.50 C147.99,72.65 146.71,74.56 145.13,72.66 C144.22,71.55 144.23,70.17 145.19,66.57 C146.13,63.05 146.61,62.35 147.15,63.70 C147.54,64.69 147.88,66.85 147.91,68.50 Z" fill="rgb(104,29,27)"/>
<path d="M 120.05 20.47 C120.92,20.03 121.70,19.57 122.24,19.21 C120.50,22.54 117.65,27.00 116.13,28.38 C114.76,29.62 113.99,29.80 113.49,28.98 C113.09,28.34 113.28,27.32 113.89,26.71 C114.50,26.10 115.00,25.01 115.00,24.30 C115.00,23.31 112.18,23.00 103.00,23.00 C91.93,23.00 91.00,23.15 91.00,24.88 C91.00,25.91 91.70,27.33 92.55,28.04 C93.82,29.10 94.72,29.03 97.58,27.66 C103.80,24.70 110.65,26.44 109.80,30.78 C109.47,32.48 106.44,32.80 98.33,31.98 C90.47,31.19 83.00,23.91 83.00,17.05 C83.00,16.38 83.06,15.97 83.33,15.77 C83.33,15.78 83.33,15.79 83.32,15.79 C83.04,16.50 83.07,18.14 83.39,19.42 C83.88,21.39 84.64,21.77 88.09,21.82 C90.36,21.85 92.46,22.13 92.77,22.44 C93.08,22.75 96.52,22.94 100.42,22.86 L 107.50 22.72 L 98.12 21.79 C86.52,20.63 84.02,19.75 83.92,16.77 C83.90,16.24 83.84,15.86 83.76,15.65 C84.27,15.62 85.12,15.84 86.50,16.26 C88.43,16.85 90.00,17.88 90.00,18.55 C90.00,19.97 94.18,21.30 94.96,20.13 C95.26,19.69 99.07,19.26 103.44,19.17 C107.80,19.08 111.63,18.62 111.94,18.15 C112.44,17.39 117.58,15.96 120.90,15.41 C120.08,15.72 119.50,16.22 119.50,16.70 C119.50,18.75 117.53,20.01 112.93,20.91 L 108.50 21.78 L 112.80 21.89 C115.16,21.95 118.43,21.31 120.05,20.47 ZM 147.91 68.50 C147.88,66.85 147.54,64.69 147.15,63.70 C146.72,62.61 146.32,62.86 145.69,64.85 C145.88,63.85 146.00,62.92 146.00,62.27 C146.00,60.76 146.47,60.00 147.25,60.27 C148.00,60.53 148.37,61.99 148.17,63.94 C147.88,66.83 148.08,67.11 149.92,66.52 C152.35,65.75 152.44,66.34 150.78,72.52 C149.81,76.17 149.82,77.48 150.85,79.13 C151.56,80.27 151.99,81.31 151.82,81.46 C151.64,81.60 150.33,82.00 148.90,82.34 C146.79,82.85 146.09,82.50 145.16,80.45 C144.22,78.40 144.29,77.83 145.51,77.36 C147.37,76.65 147.40,75.22 145.61,73.13 C146.96,74.14 147.98,72.22 147.91,68.50 ZM 57.82 80.39 C57.25,80.03 56.38,80.36 55.90,81.12 C55.31,82.05 55.05,81.36 55.09,79.00 C55.13,77.07 55.38,76.06 55.66,76.75 C55.94,77.44 56.82,78.00 57.62,78.00 C58.72,78.00 58.83,77.56 58.08,76.14 C57.69,75.42 57.53,74.09 57.56,72.67 C57.71,76.04 59.39,79.36 60.65,78.39 C60.00,79.94 58.84,81.02 57.82,80.39 ZM 58.86 59.74 C60.02,61.90 58.98,64.22 57.32,63.20 C55.72,62.20 55.28,58.79 56.68,58.29 C57.33,58.06 58.31,58.72 58.86,59.74 ZM 144.80 68.14 C144.36,70.10 144.34,71.21 144.74,72.05 C144.09,71.03 144.15,70.08 144.80,68.14 ZM 59.30 67.05 C58.81,67.02 58.18,68.09 57.78,70.06 C58.05,68.36 58.54,67.00 59.13,67.00 C59.19,67.00 59.24,67.02 59.30,67.05 ZM 60.91 74.27 C60.41,72.95 60.00,70.77 60.00,69.43 C60.00,70.77 60.42,72.97 60.93,74.31 C60.95,74.37 60.97,74.43 60.99,74.48 C60.96,74.41 60.94,74.34 60.91,74.27 Z" fill="rgb(130,34,37)"/>
<path d="M 153.02 84.47 C151.42,86.40 149.59,86.42 148.02,84.52 C147.13,83.45 146.29,83.31 144.96,84.02 C142.19,85.50 142.00,85.31 142.00,81.08 C142.00,76.11 142.81,74.00 144.73,74.00 C145.95,74.00 146.01,73.72 145.02,72.52 C144.61,72.03 144.38,71.55 144.31,70.95 C144.37,71.34 144.51,71.69 144.74,72.05 C144.84,72.27 144.98,72.47 145.13,72.66 C145.30,72.86 145.46,73.01 145.61,73.13 C147.40,75.22 147.37,76.65 145.51,77.36 C144.29,77.83 144.22,78.40 145.16,80.45 C146.09,82.50 146.79,82.85 148.90,82.34 C150.33,82.00 151.64,81.60 151.82,81.46 C151.99,81.31 151.56,80.27 150.85,79.13 C149.82,77.48 149.81,76.17 150.78,72.52 L 150.79 72.51 C149.73,77.68 150.08,78.45 152.01,80.51 C153.90,82.53 154.08,83.20 153.02,84.47 ZM 143.25 176.84 C140.86,178.07 131.00,178.91 131.00,177.87 C131.00,177.03 133.43,176.30 137.91,175.78 C139.49,175.60 140.88,174.38 141.91,172.27 C143.97,168.09 145.00,168.15 145.00,172.46 C145.00,174.75 144.41,176.24 143.25,176.84 ZM 57.82 80.39 C58.30,80.69 58.81,80.60 59.29,80.27 C58.54,81.45 58.00,82.72 58.00,83.41 C58.00,84.28 57.44,85.01 56.75,85.01 C56.06,85.02 54.60,85.19 53.50,85.40 C50.94,85.87 46.78,85.10 45.55,83.92 L 45.54 83.91 C45.21,83.59 44.99,83.37 45.02,83.22 C45.10,82.88 46.40,82.82 50.50,82.63 C54.18,82.47 54.53,82.23 55.09,79.12 C55.06,81.39 55.32,82.04 55.90,81.12 C56.38,80.36 57.25,80.03 57.82,80.39 ZM 144.06 132.28 C144.72,138.36 143.86,144.20 142.61,142.18 C142.16,141.45 141.55,138.15 141.25,134.83 C140.84,130.29 141.05,128.59 142.10,127.93 C143.21,127.24 143.62,128.14 144.06,132.28 ZM 62.21 131.64 C62.96,133.04 61.57,144.25 60.75,143.43 C59.72,142.39 59.83,133.82 60.89,132.14 C61.36,131.40 61.96,131.17 62.21,131.64 ZM 88.41 179.40 C87.55,179.73 86.54,179.93 86.17,179.85 C85.80,179.77 84.26,179.51 82.75,179.28 C78.37,178.62 79.57,177.00 84.44,177.00 C89.01,177.00 91.20,178.32 88.41,179.40 ZM 145.00 157.00 C145.00,158.65 144.55,160.00 144.00,160.00 C143.45,160.00 143.00,158.65 143.00,157.00 C143.00,155.35 143.45,154.00 144.00,154.00 C144.55,154.00 145.00,155.35 145.00,157.00 ZM 151.90 67.23 C151.90,66.09 151.27,66.10 149.92,66.52 C149.28,66.73 148.84,66.83 148.54,66.75 C148.86,66.83 149.34,66.71 150.06,66.48 C151.63,65.98 152.06,65.99 151.90,67.23 ZM 55.65 76.73 C55.76,76.47 55.84,76.46 55.87,76.75 C55.90,77.03 56.04,77.29 56.25,77.50 C55.99,77.29 55.78,77.03 55.66,76.75 C55.66,76.74 55.66,76.73 55.65,76.73 ZM 61.32 76.75 C61.35,76.05 61.24,75.23 60.99,74.48 C60.97,74.43 60.95,74.37 60.93,74.31 C60.42,72.97 60.00,70.77 60.00,69.43 C60.00,70.77 60.43,72.99 60.95,74.37 C61.30,75.29 61.44,76.03 61.32,76.75 ZM 57.59 78.00 C58.38,77.99 58.67,77.78 58.52,77.18 C58.67,77.79 58.38,78.00 57.62,78.00 C57.61,78.00 57.60,78.00 57.59,78.00 Z" fill="rgb(135,62,61)"/>
<path d="M 111.87 31.54 C110.33,32.03 108.34,32.30 106.17,32.38 C108.55,32.27 109.61,31.75 109.80,30.78 C110.65,26.44 103.80,24.70 97.58,27.66 C94.72,29.03 93.82,29.10 92.55,28.04 C91.70,27.33 91.00,25.91 91.00,24.88 C91.00,23.15 91.93,23.00 103.00,23.00 C112.18,23.00 115.00,23.31 115.00,24.30 C115.00,25.01 114.50,26.10 113.89,26.71 C113.28,27.32 113.09,28.34 113.49,28.98 C113.99,29.80 114.76,29.62 116.13,28.38 C117.65,27.00 120.50,22.54 122.24,19.21 L 122.26 19.20 C121.94,19.83 121.57,20.50 121.18,21.19 C117.77,27.14 117.44,28.64 119.63,28.19 C120.82,27.95 120.92,28.28 120.10,29.82 C119.03,31.82 114.00,33.45 114.00,31.79 C114.00,31.28 113.04,31.17 111.87,31.54 ZM 55.65 76.73 C55.38,76.09 55.13,77.10 55.09,79.00 C55.09,79.04 55.09,79.08 55.09,79.12 C54.83,80.58 54.61,81.40 54.08,81.89 L 53.55 78.58 C51.68,66.89 51.65,65.93 53.27,66.55 C54.12,66.88 55.09,68.24 55.43,69.57 C55.98,71.76 56.99,72.42 57.56,71.58 C57.54,71.94 57.54,72.30 57.56,72.67 C57.53,74.09 57.69,75.42 58.08,76.14 C58.31,76.57 58.46,76.92 58.52,77.18 C58.67,77.78 58.38,77.99 57.59,78.00 C57.12,77.99 56.63,77.80 56.25,77.50 C56.04,77.29 55.90,77.03 55.87,76.75 C55.84,76.46 55.76,76.47 55.65,76.73 ZM 117.76 16.06 C115.02,16.72 112.29,17.61 111.94,18.15 C111.63,18.62 107.80,19.08 103.44,19.17 C99.07,19.26 95.26,19.69 94.96,20.13 C94.18,21.30 90.00,19.97 90.00,18.55 C90.00,18.02 89.01,17.26 87.63,16.67 C94.17,18.20 107.90,18.22 115.42,16.55 C116.23,16.37 117.01,16.21 117.76,16.06 ZM 148.08 65.14 C148.09,64.80 148.13,64.40 148.17,63.94 C148.37,61.99 148.00,60.53 147.25,60.27 C146.47,60.00 146.00,60.76 146.00,62.27 C146.00,62.92 145.88,63.85 145.69,64.85 C145.54,65.32 145.37,65.89 145.19,66.57 C145.12,66.85 145.05,67.12 144.98,67.37 C145.33,65.75 145.72,63.43 146.01,61.17 C146.82,54.91 147.87,52.38 148.70,54.69 C148.94,55.35 149.78,55.64 150.58,55.33 C151.71,54.90 151.58,55.80 150.01,59.47 C148.86,62.16 148.21,63.99 148.08,65.14 ZM 126.50 173.00 C123.58,174.25 117.06,174.25 119.00,173.00 C119.82,172.47 122.30,172.06 124.50,172.09 C127.64,172.13 128.07,172.32 126.50,173.00 ZM 144.07 169.20 C143.56,169.36 142.84,170.38 141.91,172.27 C141.58,172.95 141.22,173.53 140.82,174.02 C140.81,173.63 140.61,173.21 140.19,172.79 C138.58,171.18 139.96,169.00 142.61,169.00 C143.25,169.00 143.73,169.05 144.07,169.20 ZM 89.58 28.39 C91.33,29.71 93.32,30.76 95.40,31.39 C93.39,30.90 91.74,30.26 90.83,29.49 C90.39,29.12 89.98,28.75 89.58,28.39 ZM 136.05 176.03 C133.39,176.43 131.73,176.92 131.19,177.47 C131.79,176.73 133.70,176.15 136.05,176.03 ZM 51.52 82.58 C51.21,82.60 50.87,82.62 50.50,82.63 C48.87,82.71 47.68,82.76 46.83,82.82 C47.80,82.61 49.10,82.50 50.57,82.55 ZM 45.19 83.55 C45.28,83.66 45.40,83.77 45.54,83.91 L 45.55 83.92 C45.81,84.16 46.19,84.39 46.66,84.59 C46.45,84.53 46.24,84.46 46.03,84.39 C45.25,84.13 45.02,83.83 45.19,83.55 ZM 151.67 66.22 C151.39,66.10 150.88,66.22 150.06,66.48 C149.34,66.71 148.86,66.83 148.54,66.75 C148.26,66.67 148.12,66.42 148.08,65.93 C148.23,66.73 148.91,66.85 150.14,66.46 C150.91,66.21 151.40,66.10 151.67,66.22 ZM 59.07 67.01 C58.66,67.07 58.31,67.78 58.04,68.77 C58.17,67.75 58.55,67.00 59.00,67.00 C59.02,67.00 59.04,67.00 59.07,67.01 ZM 131.00 177.90 C131.10,178.41 133.67,178.44 136.48,178.19 C133.62,178.46 131.00,178.46 131.00,177.96 C131.00,177.94 131.00,177.92 131.00,177.90 ZM 99.10 32.06 C101.61,32.29 103.60,32.42 105.15,32.41 C103.15,32.43 101.06,32.31 99.10,32.06 ZM 56.75 85.01 C56.06,85.02 54.60,85.20 53.50,85.42 C52.61,85.59 51.62,85.62 50.49,85.48 C51.56,85.58 52.62,85.56 53.50,85.40 C54.60,85.19 56.06,85.02 56.75,85.01 ZM 84.95 15.82 C84.43,15.69 84.04,15.63 83.76,15.65 C83.74,15.60 83.72,15.56 83.70,15.53 C83.99,15.52 84.39,15.62 84.95,15.82 ZM 83.43 15.57 C83.40,15.62 83.37,15.69 83.33,15.77 C83.06,15.97 83.00,16.37 83.00,17.01 L 83.00 16.98 C83.00,16.16 83.08,15.71 83.43,15.57 ZM 144.90 170.57 C144.98,171.05 145.00,171.66 145.00,172.45 C145.00,171.69 144.97,171.07 144.90,170.57 ZM 144.42 69.46 C144.36,69.71 144.32,69.94 144.30,70.16 C144.31,69.91 144.35,69.68 144.42,69.46 Z" fill="rgb(147,42,45)"/>
<path d="M 43.82 81.31 C44.24,83.47 41.88,83.43 36.00,81.15 C32.31,79.72 31.52,78.97 31.58,76.96 C31.73,72.73 33.37,65.43 36.54,55.00 C36.79,54.17 37.84,50.27 38.88,46.32 C42.02,34.40 46.00,28.06 47.28,32.96 C47.63,34.29 47.33,35.00 46.43,35.00 C45.66,35.00 44.76,36.24 44.42,37.75 C44.08,39.26 42.95,42.88 41.90,45.79 C40.86,48.70 40.00,52.32 40.00,53.84 C40.00,55.36 39.62,57.03 39.15,57.55 C38.68,58.07 37.51,62.23 36.56,66.79 C34.60,76.12 35.01,77.43 40.37,78.82 C42.09,79.26 43.64,80.39 43.82,81.31 ZM 171.70 79.21 C171.04,79.63 169.70,79.98 168.72,79.98 C167.10,80.00 167.07,79.75 168.34,77.32 C169.55,75.01 169.55,73.86 168.29,69.07 C165.62,58.80 163.06,48.52 162.57,46.00 C162.30,44.62 160.74,42.05 159.11,40.27 C156.43,37.35 156.26,36.77 157.30,34.02 C157.92,32.36 158.78,31.00 159.20,31.00 C160.42,31.00 163.50,37.96 165.40,45.00 C168.26,55.56 170.12,62.29 171.15,65.74 C172.73,71.03 173.03,78.36 171.70,79.21 ZM 67.00 176.43 C67.00,177.23 62.48,177.14 61.67,176.33 C60.19,174.86 61.05,172.00 62.96,172.00 C64.64,172.00 67.00,174.59 67.00,176.43 ZM 59.30 67.05 C59.24,67.02 59.19,67.00 59.13,67.00 C59.11,67.00 59.09,67.00 59.07,67.01 C59.04,67.00 59.02,67.00 59.00,67.00 C58.55,67.00 58.17,67.75 58.04,68.77 C58.02,68.84 58.01,68.92 57.99,68.99 C58.00,68.81 58.00,68.62 58.00,68.43 C58.00,65.56 58.35,64.92 59.75,65.19 C61.18,65.47 61.50,66.61 61.50,71.45 C61.50,72.99 61.43,74.30 61.27,75.41 C61.20,75.09 61.09,74.74 60.95,74.37 C60.43,72.99 60.00,70.77 60.00,69.43 C60.00,67.83 59.70,67.07 59.30,67.05 ZM 165.78 80.17 C165.54,80.90 164.32,81.65 163.06,81.83 C161.51,82.06 160.92,81.74 161.22,80.83 C161.46,80.10 162.68,79.35 163.94,79.17 C165.49,78.94 166.08,79.26 165.78,80.17 ZM 56.95 71.93 C57.19,71.88 57.42,71.64 57.59,71.22 C57.58,71.34 57.57,71.46 57.56,71.58 C57.39,71.83 57.18,71.94 56.95,71.93 Z" fill="rgb(198,96,97)"/>
<path d="M 144.80 68.14 C144.63,68.64 144.50,69.08 144.42,69.46 C144.35,69.68 144.31,69.91 144.30,70.16 C144.27,70.44 144.28,70.71 144.31,70.95 L 144.31 70.96 C144.38,71.55 144.61,72.03 145.02,72.52 C146.01,73.72 145.95,74.00 144.73,74.00 C142.81,74.00 142.00,76.11 142.00,81.08 C142.00,85.28 142.19,85.50 144.89,84.06 C144.92,84.04 144.94,84.03 144.96,84.02 C145.39,83.79 145.76,83.65 146.11,83.60 C145.75,83.66 145.35,83.81 144.89,84.06 C143.13,85.00 143.01,86.42 143.08,105.29 C143.13,115.16 143.42,125.56 143.78,130.06 C143.41,127.83 142.98,127.38 142.10,127.93 C141.05,128.59 140.84,130.29 141.25,134.83 C141.45,137.04 141.79,139.23 142.12,140.67 C140.94,137.28 139.78,131.32 139.10,125.00 C138.61,120.32 137.38,111.01 136.38,104.30 C135.39,97.59 134.87,91.80 135.24,91.43 C136.02,90.65 139.00,93.38 139.00,94.87 C139.00,95.43 139.40,96.13 139.89,96.43 C140.39,96.74 140.37,95.13 139.83,92.74 C139.30,90.41 139.10,86.03 139.38,83.00 C139.66,79.97 139.92,75.14 139.95,72.25 C139.98,68.68 140.41,67.00 141.28,67.00 C143.22,67.00 146.00,63.27 146.00,60.67 C146.00,54.66 153.95,32.00 156.05,32.00 C156.48,32.00 157.52,31.74 158.36,31.42 C158.47,31.37 158.59,31.35 158.71,31.35 C158.28,31.86 157.73,32.87 157.30,34.02 C156.39,36.43 156.41,37.17 158.24,39.29 C157.44,38.50 156.71,38.00 156.20,38.00 C155.36,38.00 154.93,38.26 155.24,38.58 C155.56,38.89 154.51,41.79 152.91,45.02 C149.82,51.26 149.45,52.46 150.91,51.55 C152.84,50.36 152.57,53.71 150.33,58.78 C148.95,61.90 148.20,63.97 148.07,65.20 C148.07,65.18 148.07,65.16 148.08,65.14 C148.21,63.99 148.86,62.16 150.01,59.47 C151.58,55.80 151.71,54.90 150.58,55.33 C149.78,55.64 148.94,55.35 148.70,54.69 C147.87,52.38 146.82,54.91 146.01,61.17 C145.72,63.43 145.33,65.75 144.98,67.37 C144.92,67.64 144.86,67.90 144.80,68.14 ZM 144.07 169.20 C143.73,169.05 143.25,169.00 142.61,169.00 C139.96,169.00 138.58,171.18 140.19,172.79 C140.61,173.21 140.81,173.63 140.82,174.02 C139.97,175.05 138.99,175.66 137.91,175.78 C137.73,175.80 137.56,175.82 137.38,175.84 C138.53,175.64 139.00,175.21 139.00,174.47 C139.00,173.63 138.31,172.67 137.47,172.35 C136.14,171.84 136.17,171.59 137.69,170.49 C139.23,169.36 139.30,168.65 138.27,164.36 C137.63,161.68 136.58,156.18 135.94,152.13 C135.30,148.07 133.90,142.77 132.83,140.34 C131.75,137.91 131.01,134.71 131.19,133.21 C131.50,130.52 131.51,130.52 133.81,134.40 C135.07,136.55 136.35,139.70 136.64,141.40 C137.24,144.89 138.68,149.40 140.28,152.76 C141.02,154.32 141.92,154.84 143.18,154.44 C143.30,154.40 143.42,154.37 143.53,154.35 C143.22,154.85 143.00,155.85 143.00,157.00 C143.00,158.65 143.45,160.00 144.00,160.00 C144.42,160.00 144.78,159.21 144.93,158.11 C144.99,159.69 145.00,161.88 145.00,164.90 C145.00,167.40 144.99,169.35 144.94,170.89 C144.93,170.78 144.92,170.67 144.90,170.58 L 144.90 170.57 C144.77,169.53 144.49,169.07 144.07,169.20 ZM 136.05 176.03 C133.70,176.15 131.79,176.73 131.19,177.47 C131.06,177.60 131.00,177.74 131.00,177.87 C131.00,177.88 131.00,177.89 131.00,177.90 C131.00,177.92 131.00,177.94 131.00,177.96 C131.00,178.09 131.17,178.18 131.47,178.25 C131.15,178.26 130.84,178.26 130.52,178.27 C121.33,178.47 120.00,178.29 120.00,176.86 C120.00,175.01 118.11,174.05 114.17,173.90 C111.78,173.81 111.86,173.71 114.91,172.99 C116.78,172.55 118.72,171.47 119.21,170.59 C120.18,168.86 123.00,168.40 123.00,169.97 C123.00,170.50 123.66,170.69 124.46,170.38 C125.26,170.07 127.62,170.38 129.71,171.07 C131.79,171.76 132.94,172.52 132.25,172.75 C131.56,172.98 131.00,173.80 131.00,174.58 C131.00,175.57 132.22,176.00 135.00,176.00 C135.64,176.00 136.19,175.98 136.67,175.94 C136.46,175.97 136.25,176.00 136.05,176.03 ZM 66.96 107.18 C64.08,122.45 61.00,126.33 61.00,114.69 C61.00,110.62 61.47,108.37 62.47,107.61 C63.27,107.00 64.11,104.82 64.33,102.77 C64.54,100.72 65.18,98.47 65.74,97.77 C66.31,97.07 67.08,95.04 67.46,93.25 C67.85,91.46 68.59,90.00 69.12,90.00 C70.14,90.00 70.01,90.98 66.96,107.18 ZM 58.86 59.74 C58.31,58.72 57.33,58.06 56.68,58.29 C55.28,58.79 55.72,62.20 57.32,63.20 C58.13,63.70 58.79,63.40 59.12,62.71 C59.10,62.95 59.08,63.12 59.07,63.22 C58.97,64.31 56.00,62.93 56.00,61.80 C56.00,61.25 55.01,59.42 53.80,57.72 C52.31,55.62 51.99,54.50 52.80,54.23 C54.64,53.62 54.22,49.56 52.03,46.77 C50.95,45.39 50.35,43.99 50.69,43.64 C51.67,42.66 47.89,35.09 46.39,35.00 C46.40,35.00 46.41,35.00 46.43,35.00 C47.33,35.00 47.63,34.29 47.28,32.96 C46.20,28.82 43.18,32.71 40.38,41.21 C41.96,36.04 43.18,33.46 44.72,31.75 C47.01,29.22 47.47,29.48 50.02,34.75 C51.29,37.36 52.95,40.73 53.71,42.23 C54.46,43.73 55.29,46.57 55.55,48.55 C56.07,52.67 57.63,56.00 59.03,56.00 C59.55,56.00 59.79,57.46 59.56,59.25 C59.47,59.90 59.39,60.54 59.32,61.12 C59.26,60.68 59.11,60.21 58.86,59.74 ZM 111.87 31.54 C113.04,31.17 114.00,31.28 114.00,31.79 C114.00,33.00 116.68,32.46 118.55,31.30 C116.78,33.00 114.13,34.87 112.53,35.53 C106.10,38.17 98.87,38.04 91.75,35.16 C88.04,33.66 88.28,32.92 92.25,33.59 C100.34,34.97 103.28,35.17 106.52,34.56 C111.25,33.67 110.87,32.80 106.18,32.38 C108.34,32.30 110.34,32.03 111.87,31.54 ZM 51.52 82.58 L 50.59 82.55 C51.08,82.36 51.53,82.06 51.84,81.69 C52.86,80.46 52.33,80.13 48.53,79.56 C44.03,78.88 42.17,77.00 46.00,77.00 C47.10,77.00 48.00,77.48 48.00,78.07 C48.00,78.66 49.01,79.00 50.25,78.82 C52.10,78.56 52.49,77.89 52.45,75.00 C52.43,73.07 52.05,69.59 51.62,67.25 C50.96,63.72 51.09,63.00 52.39,63.00 C53.29,63.00 54.22,64.18 54.57,65.75 C55.25,68.77 55.66,70.38 56.07,71.21 C55.83,70.82 55.61,70.27 55.43,69.57 C55.09,68.24 54.12,66.88 53.27,66.55 C51.65,65.93 51.68,66.89 53.55,78.58 L 54.08 81.89 C53.59,82.33 52.83,82.49 51.52,82.58 ZM 123.64 16.49 C123.79,16.11 123.86,15.81 123.84,15.59 C125.32,15.80 126.00,16.42 126.00,17.48 C126.00,19.68 123.18,25.38 120.48,29.04 C120.84,28.17 120.59,27.99 119.63,28.19 C117.78,28.57 117.73,27.56 119.82,23.63 C119.20,25.16 119.82,25.41 121.62,24.23 C123.04,23.30 124.41,19.00 123.28,19.00 C122.90,19.00 122.05,19.89 121.22,21.11 C121.60,20.45 121.95,19.81 122.26,19.20 C122.72,18.89 123.00,18.66 123.00,18.56 C123.00,18.34 123.29,17.41 123.64,16.49 ZM 77.16 173.41 C66.92,172.93 65.94,172.92 66.35,174.51 C65.53,173.18 64.09,172.00 62.96,172.00 C61.95,172.00 61.23,172.80 61.00,173.77 C61.03,172.51 61.83,171.96 63.75,171.86 C69.36,171.58 80.63,172.23 84.50,173.07 C87.17,173.64 84.72,173.75 77.16,173.41 ZM 86.49 29.99 C87.49,31.10 87.87,32.00 87.33,32.00 C85.43,32.00 79.13,23.54 80.21,22.45 C80.42,22.25 81.80,23.12 83.28,24.39 C84.75,25.66 85.68,26.99 85.32,27.34 C84.97,27.70 85.50,28.89 86.49,29.99 ZM 126.50 173.00 C128.07,172.32 127.64,172.13 124.50,172.09 C122.30,172.06 119.82,172.47 119.00,173.00 C117.06,174.25 123.58,174.25 126.50,173.00 ZM 166.94 63.85 C166.39,61.81 165.72,59.38 164.93,56.50 C164.01,53.18 163.24,49.73 163.04,48.16 C163.81,51.46 165.28,57.38 166.94,63.85 ZM 96.70 31.72 C94.67,31.43 93.13,31.01 92.39,30.52 C92.19,30.39 92.00,30.26 91.81,30.13 C92.73,30.62 93.98,31.04 95.40,31.39 C95.83,31.52 96.27,31.63 96.70,31.72 ZM 161.61 34.41 C162.85,36.76 164.16,40.38 165.40,45.00 C164.34,41.04 162.89,37.10 161.61,34.41 ZM 144.00 140.56 C143.78,142.42 143.38,143.39 142.90,142.51 C143.36,142.84 143.76,142.03 144.00,140.56 ZM 172.25 78.21 C172.54,77.15 172.61,75.38 172.48,73.36 C172.49,73.48 172.50,73.60 172.51,73.71 C172.68,75.80 172.63,77.24 172.25,78.21 ZM 48.43 82.59 C47.83,82.64 47.29,82.72 46.83,82.82 C46.59,82.84 46.37,82.86 46.17,82.88 C46.78,82.63 47.60,82.49 48.43,82.59 ZM 169.16 75.14 C169.32,74.04 169.13,72.55 168.44,69.64 C169.15,72.40 169.38,73.87 169.16,75.14 ZM 162.31 45.17 C161.65,43.72 160.58,42.05 159.48,40.69 C160.69,42.10 161.80,43.87 162.31,45.17 ZM 171.33 79.40 C170.72,79.81 169.87,79.97 168.72,79.98 C169.54,79.98 170.62,79.73 171.33,79.40 ZM 102.11 17.81 C96.60,17.87 91.10,17.48 87.63,16.67 L 87.62 16.67 C91.07,17.47 96.60,17.86 102.11,17.81 ZM 65.71 176.95 C65.45,176.99 65.12,177.00 64.73,177.00 C63.76,177.00 63.01,176.92 62.45,176.71 C63.35,176.96 64.71,177.04 65.71,176.95 ZM 143.25 176.84 C143.42,176.75 143.57,176.64 143.72,176.52 C143.52,176.70 143.29,176.85 143.03,176.99 C142.80,177.11 142.37,177.23 141.79,177.35 C142.40,177.19 142.90,177.02 143.25,176.84 ZM 148.07 65.87 C148.19,66.66 148.79,66.83 149.88,66.53 C148.82,66.83 148.22,66.67 148.08,65.93 C148.08,65.91 148.07,65.89 148.07,65.87 ZM 89.58 28.39 C89.66,28.46 89.74,28.53 89.82,28.61 C89.70,28.51 89.58,28.41 89.47,28.30 C89.50,28.33 89.54,28.36 89.58,28.39 ZM 57.99 68.99 C58.00,68.81 58.00,68.62 58.00,68.43 C58.00,68.62 58.00,68.81 57.99,68.99 ZM 144.94 170.91 C144.94,170.90 144.94,170.90 144.94,170.88 Z" fill="rgb(167,59,58)"/>
<path d="M 77.16 173.41 C84.72,173.75 87.17,173.64 84.50,173.07 C80.63,172.23 69.36,171.58 63.75,171.86 C63.66,171.87 63.57,171.87 63.48,171.88 C63.84,171.80 64.24,171.73 64.70,171.65 C66.79,171.30 69.88,171.02 71.56,171.01 C73.25,171.00 75.61,170.08 76.81,168.96 C78.02,167.84 79.06,167.39 79.12,167.96 C79.19,168.53 79.31,169.56 79.38,170.25 C79.58,172.27 104.47,173.81 113.33,172.34 L 117.17 171.71 L 116.67 166.61 C114.90,148.36 112.87,116.79 113.43,116.23 C114.57,115.09 115.69,117.88 117.48,126.37 C118.43,130.84 120.56,139.68 122.22,146.00 C123.87,152.32 125.65,159.26 126.16,161.42 C128.08,169.55 131.28,172.36 136.38,170.41 C137.96,169.80 137.71,165.45 135.89,161.87 C135.43,160.97 134.56,156.92 133.95,152.87 C133.34,148.81 132.00,142.72 130.98,139.32 C126.37,124.09 122.94,106.00 124.65,106.00 C125.69,106.00 126.84,108.64 131.64,122.00 C133.52,127.22 135.94,132.39 137.03,133.47 C138.99,135.44 139.00,135.41 138.95,127.47 C138.93,125.42 138.87,123.59 138.72,121.66 C138.87,122.92 139.00,124.06 139.10,125.00 C139.78,131.32 140.94,137.28 142.12,140.67 C142.29,141.40 142.46,141.93 142.61,142.18 C142.71,142.34 142.80,142.45 142.90,142.51 C143.38,143.39 143.78,142.42 144.00,140.56 C144.02,140.49 144.03,140.43 144.04,140.36 C144.18,145.57 144.32,150.42 144.45,154.32 C144.31,154.12 144.16,154.00 144.00,154.00 C143.83,154.00 143.67,154.13 143.53,154.35 C143.42,154.37 143.30,154.40 143.18,154.44 C141.92,154.84 141.02,154.32 140.28,152.76 C138.68,149.40 137.24,144.89 136.64,141.40 C136.35,139.70 135.07,136.55 133.81,134.40 C131.51,130.52 131.50,130.52 131.19,133.21 C131.01,134.71 131.75,137.91 132.83,140.34 C133.90,142.77 135.30,148.07 135.94,152.13 C136.58,156.18 137.63,161.68 138.27,164.36 C139.30,168.65 139.23,169.36 137.69,170.49 C136.17,171.59 136.14,171.84 137.47,172.35 C138.31,172.67 139.00,173.63 139.00,174.47 C139.00,175.21 138.53,175.64 137.38,175.84 C137.14,175.87 136.90,175.91 136.67,175.94 C136.45,175.96 136.21,175.97 135.96,175.98 C137.24,175.88 138.00,175.34 138.00,174.50 C138.00,173.57 137.06,173.00 135.50,173.00 C133.94,173.00 133.00,173.57 133.00,174.50 C133.00,175.40 133.88,175.96 135.34,176.00 C135.23,176.00 135.12,176.00 135.00,176.00 C132.22,176.00 131.00,175.57 131.00,174.58 C131.00,173.80 131.56,172.98 132.25,172.75 C132.94,172.52 131.79,171.76 129.71,171.07 C127.62,170.38 125.26,170.07 124.46,170.38 C123.66,170.69 123.00,170.50 123.00,169.97 C123.00,168.40 120.18,168.86 119.21,170.59 C118.72,171.47 116.78,172.55 114.91,172.99 C111.86,173.71 111.78,173.81 114.17,173.90 C118.11,174.05 120.00,175.01 120.00,176.86 C120.00,178.12 121.03,178.41 127.52,178.33 C117.95,178.59 117.00,178.40 117.00,176.86 C117.00,175.25 115.50,175.07 100.25,174.80 C88.13,174.58 82.96,174.85 81.53,175.75 C79.79,176.85 80.10,177.00 84.22,177.00 C84.26,177.00 84.30,177.00 84.33,177.00 C80.07,177.02 78.69,178.30 81.53,179.04 C80.80,178.92 80.01,178.79 79.21,178.66 C75.05,177.98 73.08,177.23 73.38,176.44 C73.97,174.92 72.58,173.56 70.28,173.14 C71.89,173.17 74.12,173.26 77.16,173.41 ZM 137.86 114.86 C137.14,110.48 135.96,104.77 134.07,96.00 C131.73,85.20 131.95,82.74 135.02,85.52 C136.11,86.50 137.06,87.13 137.13,86.90 C137.21,86.68 137.36,82.14 137.48,76.82 C137.64,69.13 138.08,66.58 139.59,64.43 C142.49,60.32 142.76,59.84 144.93,55.00 C146.04,52.53 147.38,49.83 147.90,49.00 C149.46,46.52 153.49,35.64 153.64,33.50 C153.84,30.58 152.33,29.21 149.49,29.76 C148.03,30.04 147.00,29.77 147.00,29.10 C147.00,28.03 137.62,23.21 134.14,22.51 C133.24,22.33 131.20,21.68 129.61,21.06 C128.02,20.45 126.62,20.07 126.49,20.22 C126.36,20.37 125.57,21.85 124.73,23.50 C123.80,25.33 122.18,27.44 120.31,29.42 C120.37,29.28 120.43,29.15 120.48,29.04 C123.18,25.38 126.00,19.68 126.00,17.48 C126.00,16.98 125.85,16.57 125.53,16.27 C126.68,16.90 127.75,17.67 128.00,18.04 C128.77,19.18 136.12,22.04 136.96,21.53 C138.19,20.77 151.04,25.82 156.04,29.02 C157.13,29.73 158.07,30.41 158.89,31.17 C158.83,31.22 158.77,31.28 158.71,31.35 C158.59,31.35 158.47,31.37 158.36,31.42 C157.52,31.74 156.48,32.00 156.05,32.00 C153.95,32.00 146.00,54.66 146.00,60.67 C146.00,63.27 143.22,67.00 141.28,67.00 C140.41,67.00 139.98,68.68 139.95,72.25 C139.92,75.14 139.66,79.97 139.38,83.00 C139.10,86.03 139.30,90.41 139.83,92.74 C140.37,95.13 140.39,96.74 139.89,96.43 C139.40,96.13 139.00,95.43 139.00,94.87 C139.00,93.38 136.02,90.65 135.24,91.43 C134.87,91.80 135.39,97.59 136.38,104.30 C136.86,107.49 137.38,111.27 137.86,114.86 ZM 82.89 155.06 C77.86,175.26 77.25,160.78 82.01,134.00 C82.65,130.43 83.49,124.35 83.87,120.50 C84.26,116.65 85.24,112.38 86.04,111.00 C87.43,108.62 87.51,108.86 87.79,115.80 C87.96,119.81 87.39,127.13 86.54,132.05 C85.70,136.97 85.00,142.27 85.00,143.81 C85.00,145.36 84.05,150.42 82.89,155.06 ZM 99.10 32.06 C101.06,32.31 103.15,32.43 105.15,32.41 C105.51,32.41 105.86,32.40 106.17,32.38 L 106.18 32.38 C110.87,32.80 111.25,33.67 106.52,34.56 C103.28,35.17 100.34,34.97 92.25,33.59 C90.47,33.29 89.44,33.27 89.18,33.48 C88.48,33.01 87.80,32.51 87.14,31.98 C87.21,31.99 87.27,32.00 87.33,32.00 C87.87,32.00 87.49,31.10 86.49,29.99 C85.50,28.89 84.97,27.70 85.32,27.34 C85.68,26.99 84.75,25.66 83.28,24.39 C81.80,23.12 80.42,22.25 80.21,22.45 C79.80,22.87 80.46,24.37 81.55,26.05 C81.19,25.54 80.85,25.01 80.54,24.48 C78.03,20.20 74.96,18.64 73.54,20.93 C72.91,21.95 63.20,25.00 60.60,25.00 C59.72,25.00 59.00,24.61 59.00,24.13 C59.00,23.20 67.90,20.37 69.40,20.82 C69.89,20.98 72.09,20.38 74.28,19.50 C78.09,17.98 78.35,18.00 80.17,19.95 C82.49,22.45 83.57,22.53 83.49,20.17 C84.42,23.21 86.62,26.12 89.47,28.30 C89.58,28.41 89.70,28.51 89.82,28.61 C90.15,28.90 90.48,29.19 90.83,29.49 C91.10,29.71 91.43,29.93 91.81,30.13 C92.00,30.26 92.19,30.39 92.39,30.52 C93.13,31.01 94.67,31.43 96.70,31.72 C97.24,31.84 97.79,31.93 98.33,31.98 C98.59,32.01 98.85,32.03 99.10,32.06 ZM 43.82 81.31 C43.64,80.39 42.09,79.26 40.37,78.82 C37.15,77.98 35.71,77.17 35.51,74.63 C36.18,74.82 37.87,75.16 39.75,75.47 C42.97,76.01 44.02,75.85 44.07,74.84 C44.11,74.10 44.08,70.06 44.01,65.85 C43.84,55.98 45.59,54.73 46.22,64.27 C46.57,69.38 47.34,72.45 48.85,74.75 C50.03,76.54 51.34,77.89 51.75,77.75 C52.76,77.41 52.27,68.04 51.16,66.63 C49.58,64.61 48.87,58.79 50.26,59.24 C51.06,59.49 52.29,61.26 53.37,63.44 C53.06,63.16 52.72,63.00 52.39,63.00 C51.09,63.00 50.96,63.72 51.62,67.25 C52.05,69.59 52.43,73.07 52.45,75.00 C52.49,77.89 52.10,78.56 50.25,78.82 C49.01,79.00 48.00,78.66 48.00,78.07 C48.00,77.48 47.10,77.00 46.00,77.00 C42.17,77.00 44.03,78.88 48.53,79.56 C49.68,79.73 50.53,79.88 51.13,80.04 C50.63,80.01 49.98,80.00 49.17,80.00 C46.33,80.00 44.80,80.53 44.12,81.75 C43.54,82.79 43.18,83.17 41.63,82.84 C43.38,83.07 44.06,82.56 43.82,81.31 ZM 66.01 97.37 C65.92,97.53 65.83,97.67 65.74,97.77 C65.18,98.47 64.54,100.72 64.33,102.77 C64.31,102.93 64.29,103.08 64.27,103.24 C64.24,102.10 63.96,100.96 63.39,100.15 C61.72,97.76 60.28,82.00 61.74,82.00 C62.82,82.00 63.64,85.07 64.81,93.50 C65.18,96.21 65.57,97.50 66.01,97.37 ZM 153.02 84.47 C154.08,83.20 153.90,82.53 152.01,80.51 C151.88,80.38 151.76,80.25 151.65,80.12 C152.98,81.17 153.50,80.91 155.39,78.54 C157.42,75.99 157.93,75.82 160.57,76.79 C163.40,77.83 163.42,77.89 161.25,78.55 C159.96,78.94 159.00,80.03 159.00,81.12 C159.00,82.43 158.28,83.00 156.62,83.00 C155.31,83.00 153.68,83.68 153.00,84.50 C152.10,85.58 151.12,86.05 150.16,85.91 C151.12,86.05 152.10,85.58 153.00,84.50 C153.01,84.49 153.02,84.48 153.02,84.47 ZM 50.68 35.75 C51.13,36.76 51.74,38.14 52.38,39.56 C51.63,38.05 50.76,36.27 50.02,34.75 C48.46,31.52 47.68,30.18 46.79,30.20 C47.56,29.52 48.41,28.88 49.36,28.25 C52.04,26.46 54.63,25.00 55.11,25.00 C57.18,25.00 55.72,27.67 52.50,29.75 L 49.03 32.00 ZM 148.07 65.21 L 148.07 65.20 C148.20,63.97 148.95,61.90 150.33,58.78 C152.57,53.71 152.84,50.36 150.91,51.55 C149.53,52.41 149.78,51.39 152.41,46.04 C151.71,47.84 152.14,48.13 153.69,46.87 C155.19,45.65 155.29,45.72 154.58,47.50 C154.15,48.60 153.44,50.62 153.00,52.00 C152.57,53.38 151.27,56.67 150.11,59.33 C148.88,62.15 148.20,64.05 148.07,65.21 ZM 62.42 165.54 C63.09,168.20 61.89,171.55 60.69,170.36 C59.68,169.34 59.85,163.00 60.89,163.00 C61.38,163.00 62.07,164.14 62.42,165.54 ZM 121.62 24.23 C119.82,25.41 119.20,25.16 119.82,23.63 C120.20,22.92 120.65,22.11 121.18,21.19 C121.19,21.16 121.21,21.14 121.22,21.11 C122.05,19.89 122.90,19.00 123.28,19.00 C124.41,19.00 123.04,23.30 121.62,24.23 ZM 155.19 58.50 C154.80,61.86 154.05,62.72 152.71,61.37 C152.17,60.83 154.56,55.00 155.32,55.00 C155.48,55.00 155.41,56.58 155.19,58.50 ZM 52.00 51.50 C53.29,52.30 53.25,49.16 52.34,47.19 C54.26,49.94 54.55,53.65 52.80,54.23 C52.24,54.42 52.22,55.00 52.74,56.03 C50.83,52.87 50.35,50.48 52.00,51.50 ZM 59.63 58.44 C59.71,57.04 59.47,56.00 59.03,56.00 C57.86,56.00 56.57,53.65 55.88,50.47 C56.23,51.07 56.79,51.76 57.48,52.40 C59.59,54.35 59.98,55.40 59.63,58.44 ZM 113.09 107.69 C113.70,108.30 114.03,109.55 113.84,110.48 C113.40,112.68 112.00,111.28 112.00,108.63 C112.00,107.16 112.30,106.90 113.09,107.69 ZM 143.75 129.76 C143.41,125.10 143.12,114.94 143.08,105.29 C143.07,102.90 143.07,100.79 143.07,98.93 C143.11,101.90 143.19,105.49 143.28,109.85 C143.40,115.65 143.57,122.70 143.75,129.76 ZM 61.01 113.67 C61.00,114.00 61.00,114.34 61.00,114.69 C61.00,119.68 61.57,121.82 62.44,121.43 C62.17,121.61 61.93,121.59 61.70,121.37 C60.98,120.65 60.80,117.02 61.01,113.67 ZM 84.95 15.82 C84.39,15.62 83.99,15.52 83.70,15.53 C83.62,15.42 83.53,15.43 83.43,15.57 C83.13,15.69 83.03,16.03 83.01,16.65 L 82.73 14.95 L 85.04 15.84 C85.01,15.83 84.98,15.83 84.95,15.82 ZM 153.87 42.98 C154.90,40.65 155.49,38.83 155.24,38.58 C154.93,38.26 155.36,38.00 156.20,38.00 C155.36,38.00 154.94,38.27 155.28,38.61 C155.61,38.95 155.01,40.85 153.94,42.84 C153.92,42.89 153.90,42.93 153.87,42.98 ZM 55.58 48.82 C55.57,48.73 55.56,48.64 55.55,48.55 C55.40,47.43 55.07,46.03 54.68,44.75 C55.38,46.53 55.75,48.18 55.58,48.82 ZM 50.60 43.84 C50.54,44.25 50.87,45.06 51.45,45.96 C50.69,45.30 50.32,44.37 50.60,43.84 ZM 97.89 36.96 C96.35,36.75 94.96,36.43 93.86,35.99 C93.64,35.90 93.41,35.81 93.19,35.71 C94.76,36.26 96.33,36.68 97.89,36.96 ZM 49.45 38.96 C50.47,40.98 51.17,43.13 50.70,43.64 C50.97,42.81 50.34,40.82 49.45,38.96 ZM 56.36 71.59 C56.26,71.48 56.16,71.36 56.07,71.21 C55.72,70.50 55.37,69.22 54.85,66.98 C55.12,67.77 55.34,68.54 55.48,69.25 C55.72,70.41 56.03,71.18 56.36,71.59 ZM 165.33 44.72 C165.40,44.98 165.47,45.24 165.54,45.50 C166.45,48.80 167.86,53.97 168.69,57.00 C169.51,60.03 170.62,63.96 171.15,65.74 C170.12,62.29 168.26,55.56 165.40,45.00 C165.38,44.91 165.35,44.82 165.33,44.72 ZM 39.04 57.76 C38.60,58.57 37.71,61.81 36.90,65.22 C37.77,61.32 38.73,58.01 39.15,57.55 C39.15,57.55 39.15,57.55 39.15,57.54 C39.12,57.62 39.08,57.69 39.04,57.76 ZM 113.12 35.26 C112.76,35.45 112.42,35.62 112.09,35.76 C111.31,36.09 110.39,36.37 109.37,36.59 C110.44,36.31 111.50,35.96 112.53,35.53 C112.71,35.46 112.91,35.36 113.12,35.26 ZM 150.30 77.79 C150.07,76.69 150.24,75.22 150.77,72.61 C150.30,75.05 150.14,76.66 150.30,77.79 ZM 54.36 58.53 C55.30,59.97 56.00,61.34 56.00,61.80 C56.00,62.37 56.76,63.01 57.53,63.36 C56.76,63.02 56.00,62.40 56.00,61.84 C56.00,61.43 55.31,60.07 54.36,58.53 ZM 38.88 46.32 C39.54,43.82 40.16,41.70 40.80,39.87 C40.67,40.30 40.53,40.75 40.38,41.21 C39.87,42.77 39.37,44.48 38.88,46.32 ZM 87.55 16.64 C90.03,17.22 93.51,17.59 97.29,17.74 C93.52,17.60 90.06,17.23 87.62,16.67 C87.59,16.66 87.57,16.65 87.55,16.64 ZM 143.16 176.91 C143.37,176.79 143.55,176.67 143.72,176.52 L 143.72 176.52 C143.95,176.32 144.16,176.06 144.33,175.76 C144.07,176.36 143.71,176.62 143.21,176.89 C143.20,176.89 143.18,176.90 143.16,176.91 ZM 32.65 79.51 C31.78,78.88 31.57,78.21 31.58,77.17 C31.58,78.19 31.83,78.87 32.65,79.51 ZM 51.90 81.62 C51.88,81.64 51.86,81.66 51.84,81.69 C51.53,82.06 51.08,82.36 50.59,82.55 L 50.57 82.55 C50.55,82.55 50.54,82.55 50.53,82.54 C51.05,82.35 51.55,82.02 51.90,81.62 ZM 162.92 37.31 C163.42,38.52 163.90,39.92 164.41,41.56 C163.91,39.97 163.42,38.55 162.92,37.31 ZM 62.37 107.69 C62.20,107.84 62.04,108.04 61.90,108.30 C62.04,107.97 62.20,107.75 62.37,107.69 ZM 89.42 177.96 C89.92,178.39 89.66,178.92 88.41,179.40 C89.65,178.92 89.91,178.40 89.42,177.96 ZM 66.37 174.54 C66.37,174.53 66.36,174.52 66.35,174.51 C66.29,174.27 66.26,174.07 66.29,173.90 C66.28,174.08 66.31,174.29 66.37,174.54 ZM 144.85 84.08 C144.86,84.07 144.88,84.06 144.89,84.06 C145.35,83.81 145.73,83.66 146.09,83.60 C145.73,83.67 145.33,83.83 144.85,84.08 ZM 117.76 16.06 C117.15,16.18 116.50,16.31 115.84,16.46 C116.59,16.29 117.26,16.15 117.88,16.03 C117.84,16.04 117.80,16.05 117.76,16.06 ZM 67.46 93.25 C67.79,91.74 68.37,90.46 68.86,90.10 C68.37,90.47 67.79,91.74 67.46,93.25 C67.44,93.35 67.42,93.45 67.40,93.55 C67.42,93.45 67.44,93.35 67.46,93.25 ZM 59.00 63.41 C59.04,63.36 59.06,63.30 59.07,63.22 C59.08,63.12 59.10,62.95 59.12,62.71 C59.13,62.71 59.13,62.71 59.13,62.70 C59.10,62.95 59.08,63.13 59.07,63.22 C59.06,63.30 59.04,63.36 59.00,63.41 ZM 66.01 176.92 C66.13,176.90 66.24,176.88 66.34,176.85 C66.25,176.88 66.14,176.90 66.01,176.92 ZM 151.67 66.22 C151.50,66.14 151.23,66.16 150.86,66.25 C151.27,66.15 151.54,66.14 151.71,66.24 C151.70,66.23 151.68,66.23 151.67,66.22 ZM 56.95 71.93 C56.94,71.93 56.93,71.92 56.91,71.92 C56.96,71.92 57.00,71.91 57.04,71.90 C57.01,71.91 56.98,71.92 56.95,71.93 ZM 123.84 15.59 C123.86,15.59 123.87,15.59 123.88,15.60 C123.87,15.59 123.86,15.59 123.84,15.59 Z" fill="rgb(183,65,65)"/>
<path d="M 82.83 15.58 L 83.01 16.65 C83.00,16.75 83.00,16.86 83.00,16.98 L 83.00 17.01 L 83.00 17.05 C83.00,18.08 83.17,19.13 83.49,20.17 C83.57,22.53 82.49,22.45 80.17,19.95 C78.35,18.00 78.09,17.98 74.28,19.50 C72.09,20.38 69.89,20.98 69.40,20.82 C68.69,20.61 66.32,21.13 64.02,21.84 C65.23,21.42 66.53,20.91 67.50,20.47 C74.94,17.05 79.60,15.53 82.83,15.58 ZM 63.39 100.15 C63.96,100.96 64.24,102.10 64.27,103.24 C63.98,105.14 63.21,107.05 62.47,107.61 C62.44,107.63 62.40,107.66 62.37,107.69 L 62.37 107.69 C62.20,107.75 62.04,107.97 61.90,108.30 C61.57,108.89 61.34,109.77 61.19,110.96 C61.14,104.55 61.23,96.44 61.42,90.43 C61.81,94.60 62.57,98.98 63.39,100.15 ZM 125.31 16.09 C126.51,16.43 127.95,16.92 129.88,17.59 C134.07,19.03 137.95,20.57 138.50,21.01 C138.89,21.33 140.56,22.07 142.65,22.87 C139.74,21.83 137.44,21.23 136.96,21.53 C136.12,22.04 128.77,19.18 128.00,18.04 C127.75,17.67 126.68,16.90 125.53,16.27 C125.46,16.20 125.39,16.14 125.31,16.09 ZM 67.00 176.43 C67.00,176.12 66.93,175.78 66.81,175.43 C67.38,175.75 69.06,176.00 70.79,176.00 C72.49,176.00 73.32,175.93 73.51,175.62 C73.53,175.89 73.49,176.16 73.38,176.44 C73.15,177.06 74.29,177.65 76.77,178.20 C75.63,178.11 74.49,178.06 73.50,178.07 C69.40,178.07 66.27,177.71 64.19,176.99 C64.36,177.00 64.54,177.00 64.73,177.00 C65.12,177.00 65.45,176.99 65.71,176.95 C65.81,176.94 65.91,176.93 66.01,176.92 C66.14,176.90 66.25,176.88 66.34,176.85 C66.74,176.76 67.00,176.62 67.00,176.43 ZM 144.65 23.62 C144.88,23.70 145.11,23.78 145.35,23.87 C151.13,25.89 155.03,27.74 157.90,30.33 C157.33,29.89 156.71,29.46 156.04,29.02 C153.45,27.36 148.75,25.20 144.65,23.62 ZM 102.11 17.81 C100.49,17.82 98.86,17.80 97.29,17.74 C93.51,17.59 90.03,17.22 87.55,16.64 C87.51,16.62 87.47,16.61 87.43,16.59 C92.08,17.60 99.89,17.99 106.61,17.65 C105.14,17.74 103.63,17.79 102.11,17.81 ZM 62.71 22.26 C61.12,22.81 59.74,23.40 59.22,23.82 C59.59,23.35 60.47,22.85 61.75,22.53 C62.04,22.46 62.36,22.37 62.71,22.26 ZM 63.80 87.13 C63.19,83.89 62.63,82.38 62.00,82.06 C62.02,82.02 62.04,82.00 62.06,82.00 C62.58,82.00 63.15,83.68 63.80,87.13 ZM 73.26 174.83 C73.18,174.73 73.10,174.62 73.00,174.50 C72.50,173.90 71.37,173.37 70.18,173.13 C70.21,173.13 70.25,173.14 70.28,173.14 C71.71,173.40 72.79,174.03 73.26,174.83 ZM 59.02 24.26 C59.14,24.68 59.80,25.00 60.60,25.00 C59.47,25.00 58.98,24.68 59.02,24.26 ZM 88.41 179.40 C87.86,179.61 87.49,179.75 87.10,179.82 C86.91,179.86 86.70,179.87 86.47,179.87 C86.95,179.84 87.73,179.66 88.41,179.40 ZM 62.68 121.27 C62.36,121.61 62.08,121.69 61.84,121.48 C62.02,121.59 62.22,121.57 62.44,121.43 C62.52,121.40 62.60,121.34 62.68,121.27 ZM 84.86 179.62 C85.46,179.72 85.92,179.80 86.13,179.84 C85.79,179.81 85.39,179.73 84.86,179.62 ZM 117.13 16.18 C117.68,16.06 118.18,15.95 118.64,15.85 C118.39,15.91 118.14,15.97 117.88,16.03 C117.64,16.08 117.39,16.13 117.13,16.18 Z" fill="rgb(168,87,88)"/>
<path d="M 64.93 171.61 C74.27,168.51 74.74,168.12 75.61,163.00 C77.15,153.84 81.04,128.44 82.04,121.00 C82.44,117.97 83.34,111.66 84.04,106.97 C85.47,97.30 84.57,90.73 81.71,90.18 C80.68,89.98 80.00,90.48 80.00,91.43 C80.00,93.98 78.27,93.22 77.55,90.36 C76.66,86.80 78.46,85.03 80.69,87.26 C82.26,88.83 82.58,88.80 85.74,86.85 L 89.12 84.76 L 91.56 87.06 C92.90,88.32 94.05,90.28 94.12,91.42 C94.20,92.95 94.35,93.06 94.67,91.86 C95.19,89.91 99.14,88.94 101.40,90.21 C103.61,91.44 103.40,94.67 101.00,96.74 C99.23,98.25 99.07,99.21 99.64,104.83 C100.14,109.70 99.97,111.40 98.92,112.05 C96.99,113.24 94.02,110.30 93.92,107.10 C93.88,105.65 93.62,105.17 93.33,106.00 C93.05,106.82 92.12,109.05 91.27,110.94 C90.03,113.71 89.85,116.53 90.39,125.31 C90.75,131.32 90.68,136.74 90.23,137.37 C88.64,139.58 86.89,146.29 83.09,164.83 C82.49,167.76 82.00,170.46 82.00,170.83 C82.00,171.20 88.92,171.61 97.38,171.75 C97.67,171.75 97.95,171.76 98.23,171.76 C108.61,171.93 112.89,172.00 114.30,170.02 C115.30,168.63 114.89,166.24 114.19,162.17 C114.16,162.01 114.13,161.85 114.10,161.69 C112.66,153.27 112.15,147.35 110.08,115.19 C109.54,106.76 108.80,98.96 108.45,97.84 C107.67,95.40 108.80,87.00 109.90,87.00 C111.51,87.00 113.13,92.63 114.50,103.01 C115.78,112.69 117.98,122.68 125.60,153.50 C128.97,167.09 130.62,171.12 134.01,170.98 C130.26,171.29 127.76,168.21 126.16,161.42 C125.65,159.26 123.87,152.32 122.22,146.00 C120.56,139.68 118.43,130.84 117.48,126.37 C115.69,117.88 114.57,115.09 113.43,116.23 C112.87,116.79 114.90,148.36 116.67,166.61 L 117.17 171.71 L 113.33 172.34 C104.47,173.81 79.58,172.27 79.38,170.25 C79.31,169.56 79.19,168.53 79.12,167.96 C79.06,167.39 78.02,167.84 76.81,168.96 C75.61,170.08 73.25,171.00 71.56,171.01 C69.94,171.02 67.01,171.28 64.93,171.61 ZM 137.86 114.86 C138.18,117.30 138.48,119.64 138.72,121.66 C138.87,123.59 138.93,125.42 138.95,127.47 C139.00,135.41 138.99,135.44 137.03,133.47 C135.94,132.39 133.52,127.22 131.64,122.00 C126.84,108.64 125.69,106.00 124.65,106.00 C123.50,106.00 124.68,114.24 127.00,124.28 C126.55,122.79 125.94,121.20 125.41,120.18 C124.64,118.71 124.01,116.67 124.01,115.66 C124.00,114.64 123.09,109.35 121.98,103.90 C119.49,91.70 118.67,83.00 120.01,83.00 C120.56,83.00 121.00,83.61 121.00,84.35 C121.00,85.09 121.90,86.73 123.00,88.00 C124.13,89.30 125.00,91.74 125.00,93.61 C125.00,97.99 129.47,110.14 131.67,111.74 C133.10,112.79 133.55,112.76 134.21,111.59 C135.44,109.39 133.05,94.84 130.97,91.88 C129.80,90.22 129.03,87.06 128.84,83.20 C128.54,77.18 129.08,75.50 131.33,75.50 C131.98,75.50 132.96,73.70 133.53,71.50 C134.10,69.30 135.78,64.98 137.28,61.90 C138.78,58.83 140.00,55.99 140.00,55.61 C140.00,54.80 143.66,49.43 146.35,46.31 C148.56,43.75 148.09,40.55 145.04,37.27 C143.92,36.07 143.00,34.44 143.00,33.66 C143.00,32.87 141.88,31.49 140.50,30.59 C139.12,29.69 138.00,28.34 138.00,27.58 C138.00,24.99 134.39,24.68 125.50,26.53 C124.40,26.76 121.70,28.59 119.50,30.59 C118.32,31.67 117.19,32.59 116.07,33.38 C116.95,32.72 117.82,31.99 118.55,31.30 C119.23,30.87 119.81,30.36 120.10,29.82 C120.17,29.67 120.24,29.54 120.31,29.42 C122.18,27.44 123.80,25.33 124.73,23.50 C125.57,21.85 126.36,20.37 126.49,20.22 C126.62,20.07 128.02,20.45 129.61,21.06 C131.20,21.68 133.24,22.33 134.14,22.51 C137.62,23.21 147.00,28.03 147.00,29.10 C147.00,29.77 148.03,30.04 149.49,29.76 C152.33,29.21 153.84,30.58 153.64,33.50 C153.49,35.64 149.46,46.52 147.90,49.00 C147.38,49.83 146.04,52.53 144.93,55.00 C142.76,59.84 142.49,60.32 139.59,64.43 C138.08,66.58 137.64,69.13 137.48,76.82 C137.36,82.14 137.21,86.68 137.13,86.90 C137.06,87.13 136.11,86.50 135.02,85.52 C131.95,82.74 131.73,85.20 134.07,96.00 C135.96,104.77 137.14,110.48 137.86,114.86 ZM 62.42 165.54 C62.07,164.14 61.38,163.00 60.89,163.00 C60.80,163.00 60.71,163.05 60.63,163.15 C60.45,156.54 60.34,148.57 60.35,142.43 C60.45,142.91 60.59,143.26 60.75,143.43 C61.24,143.92 61.93,140.14 62.25,136.71 C62.37,136.81 62.57,136.77 62.85,136.59 C63.48,136.20 64.00,136.45 64.00,137.14 C64.00,139.31 65.81,136.69 66.17,134.00 C66.39,132.33 67.22,131.40 68.68,131.19 C70.77,130.89 70.84,131.14 70.30,136.69 C69.98,139.89 69.30,143.33 68.78,144.34 C68.26,145.35 68.05,146.38 68.30,146.63 C68.55,146.89 67.88,150.79 66.81,155.30 C63.72,168.26 63.16,171.57 64.38,171.70 C64.05,171.76 63.75,171.82 63.48,171.88 C61.97,172.00 61.22,172.44 61.04,173.35 C60.99,172.56 60.94,171.61 60.89,170.51 C62.01,171.20 63.05,168.06 62.42,165.54 ZM 52.00 51.50 C50.35,50.48 50.83,52.87 52.74,56.03 C52.75,56.06 52.77,56.09 52.78,56.12 C50.73,53.12 48.42,50.25 48.22,50.85 C48.02,51.43 49.44,55.20 51.38,59.21 C51.93,60.35 52.47,61.53 52.97,62.67 C51.99,60.86 50.96,59.46 50.26,59.24 C49.65,59.04 49.45,60.04 49.54,61.39 C49.28,60.66 48.92,59.96 48.53,59.44 C47.18,57.65 47.06,57.89 47.06,62.50 C47.05,66.54 47.81,71.45 48.82,74.70 C47.33,72.41 46.56,69.34 46.22,64.27 C45.59,54.73 43.84,55.98 44.01,65.85 C44.08,70.06 44.11,74.10 44.07,74.84 C44.02,75.85 42.97,76.01 39.75,75.47 C38.65,75.29 37.61,75.10 36.81,74.93 C37.28,74.92 37.88,74.88 38.62,74.82 L 42.48 74.50 L 42.56 67.22 C42.62,62.33 42.21,59.59 41.32,58.85 C40.34,58.03 40.00,58.10 39.98,59.13 C39.97,60.18 39.79,60.21 39.18,59.26 C38.92,58.85 38.56,59.25 38.16,60.33 C38.52,59.08 38.83,58.15 39.04,57.76 C39.08,57.69 39.12,57.62 39.15,57.54 C39.62,57.01 40.00,55.35 40.00,53.84 C40.00,53.27 40.12,52.40 40.33,51.39 C40.76,51.12 41.57,50.45 42.50,49.59 C43.88,48.31 45.00,46.23 45.00,44.95 C45.00,43.67 45.91,41.66 47.03,40.47 C48.00,39.43 48.55,38.24 48.54,37.30 C48.86,37.82 49.17,38.38 49.45,38.96 C50.34,40.82 50.97,42.81 50.70,43.64 C50.70,43.64 50.69,43.64 50.69,43.64 C50.64,43.69 50.61,43.76 50.60,43.84 C50.32,44.37 50.69,45.30 51.45,45.96 C51.62,46.22 51.82,46.50 52.03,46.77 C52.14,46.90 52.24,47.04 52.34,47.19 C53.25,49.16 53.29,52.30 52.00,51.50 ZM 82.89 155.06 C84.05,150.42 85.00,145.36 85.00,143.81 C85.00,142.27 85.70,136.97 86.54,132.05 C87.39,127.13 87.96,119.81 87.79,115.80 C87.51,108.86 87.43,108.62 86.04,111.00 C85.24,112.38 84.26,116.65 83.87,120.50 C83.49,124.35 82.65,130.43 82.01,134.00 C77.25,160.78 77.86,175.26 82.89,155.06 ZM 169.16 75.14 C169.03,75.86 168.76,76.52 168.34,77.32 C167.11,79.67 167.10,79.98 168.56,79.99 C167.45,80.33 166.34,80.76 165.67,81.12 C164.67,81.66 161.64,82.37 158.93,82.69 C158.56,82.74 158.19,82.79 157.83,82.86 C158.64,82.61 159.00,82.06 159.00,81.12 C159.00,80.03 159.96,78.94 161.25,78.55 C163.42,77.89 163.40,77.83 160.57,76.79 C157.93,75.82 157.42,75.99 155.39,78.54 C155.19,78.79 155.00,79.02 154.83,79.22 C155.94,76.72 156.81,71.39 157.68,62.58 C158.99,49.36 160.29,45.28 162.21,48.30 C162.66,49.02 162.93,48.87 162.98,47.87 C163.00,47.96 163.02,48.06 163.04,48.16 C163.24,49.73 164.01,53.18 164.93,56.50 L 165.01 56.79 C164.57,55.71 164.13,55.00 163.84,55.00 C162.30,55.00 161.72,57.95 162.96,59.45 C163.76,60.42 163.83,61.45 163.17,62.69 C161.91,65.04 160.63,73.59 161.36,74.77 C162.01,75.82 168.03,75.68 169.20,74.77 C169.19,74.90 169.18,75.02 169.16,75.14 ZM 50.68 35.75 L 49.03 32.00 L 52.50 29.75 C55.48,27.82 56.96,25.39 55.51,25.04 C56.74,24.54 58.08,24.03 59.54,23.51 C59.41,23.61 59.30,23.72 59.22,23.82 C59.08,23.94 59.00,24.04 59.00,24.13 C59.00,24.17 59.01,24.22 59.02,24.26 C58.98,24.68 59.47,25.00 60.60,25.00 C63.20,25.00 72.91,21.95 73.54,20.93 C74.96,18.64 78.03,20.20 80.54,24.48 C80.85,25.01 81.19,25.54 81.55,26.05 C81.98,26.72 82.48,27.42 83.00,28.09 C80.87,26.07 78.61,24.13 77.50,23.41 C75.15,21.87 74.75,21.92 70.03,24.39 C67.28,25.83 64.21,27.00 63.19,27.00 C62.17,27.00 59.32,28.34 56.84,29.98 L 52.33 32.97 L 53.70 39.61 C55.12,46.50 56.53,50.00 58.37,51.20 C58.78,51.46 59.13,52.91 59.36,54.72 C59.02,53.95 58.42,53.26 57.48,52.40 C56.79,51.76 56.23,51.07 55.88,50.47 C55.76,49.94 55.66,49.38 55.58,48.82 C55.75,48.18 55.38,46.53 54.68,44.75 C54.37,43.78 54.03,42.88 53.71,42.23 C53.39,41.60 52.91,40.65 52.38,39.56 C51.74,38.14 51.13,36.76 50.68,35.75 ZM 89.42 177.96 C88.80,177.41 86.99,177.00 84.44,177.00 C84.41,177.00 84.37,177.00 84.33,177.00 C84.30,177.00 84.26,177.00 84.22,177.00 C80.10,177.00 79.79,176.85 81.53,175.75 C82.96,174.85 88.13,174.58 100.25,174.80 C115.50,175.07 117.00,175.25 117.00,176.86 C117.00,178.40 117.95,178.59 127.52,178.33 C127.88,178.32 128.27,178.32 128.67,178.31 C127.83,178.35 126.98,178.38 126.12,178.41 C113.38,178.88 110.59,178.73 109.35,177.49 C107.40,175.55 97.43,175.44 96.30,177.35 C95.69,178.39 92.25,179.13 88.62,179.31 C89.69,178.86 89.89,178.37 89.42,177.96 ZM 65.16 95.59 C65.04,95.03 64.92,94.33 64.81,93.50 C64.44,90.88 64.11,88.78 63.80,87.13 C63.15,83.68 62.58,82.00 62.06,82.00 C62.06,82.00 62.05,82.00 62.04,82.01 C62.14,81.31 62.25,80.89 62.35,80.82 C64.31,79.54 67.21,84.22 66.50,87.49 C65.72,91.07 65.27,93.84 65.16,95.59 ZM 148.07 65.87 C148.06,65.68 148.06,65.46 148.07,65.21 C148.20,64.05 148.88,62.15 150.11,59.33 C151.27,56.67 152.57,53.38 153.00,52.00 C153.44,50.62 154.15,48.60 154.58,47.50 C155.29,45.72 155.19,45.65 153.69,46.87 C152.14,48.13 151.71,47.84 152.41,46.04 C152.57,45.72 152.73,45.38 152.91,45.02 C153.26,44.32 153.58,43.63 153.87,42.98 C153.90,42.93 153.92,42.89 153.94,42.84 C155.01,40.85 155.61,38.95 155.28,38.61 C155.18,38.51 155.14,38.41 155.17,38.33 C155.18,38.52 155.40,38.80 155.80,39.20 C157.85,41.25 157.16,44.40 152.50,54.23 C148.11,63.50 147.14,66.62 148.99,66.67 C148.46,66.66 148.15,66.41 148.07,65.87 ZM 138.00 174.50 C138.00,175.34 137.24,175.88 135.96,175.98 C135.76,175.99 135.56,176.00 135.34,176.00 C133.88,175.96 133.00,175.40 133.00,174.50 C133.00,173.57 133.94,173.00 135.50,173.00 C137.06,173.00 138.00,173.57 138.00,174.50 ZM 45.19 83.55 C45.11,83.69 45.12,83.84 45.26,83.98 C44.63,83.75 43.54,83.38 42.24,82.94 C43.29,83.04 43.62,82.64 44.12,81.75 C44.80,80.53 46.33,80.00 49.17,80.00 C49.58,80.00 49.94,80.00 50.27,80.01 C48.82,80.08 48.00,80.62 48.00,81.50 C48.00,81.93 48.17,82.32 48.44,82.59 L 48.43 82.59 C47.60,82.49 46.78,82.63 46.17,82.88 C45.39,82.96 45.06,83.05 45.02,83.22 C45.00,83.31 45.07,83.42 45.19,83.55 ZM 73.26 174.83 C73.40,175.08 73.49,175.34 73.51,175.62 C73.32,175.93 72.49,176.00 70.79,176.00 C70.01,176.00 69.24,175.95 68.57,175.86 C68.83,175.73 69.00,175.46 69.00,175.06 C69.00,174.30 68.19,173.50 67.42,173.23 C68.02,173.14 68.90,173.11 70.18,173.13 C71.37,173.37 72.50,173.90 73.00,174.50 C73.10,174.62 73.18,174.73 73.26,174.83 ZM 165.78 80.17 C166.08,79.26 165.49,78.94 163.94,79.17 C162.68,79.35 161.46,80.10 161.22,80.83 C160.92,81.74 161.51,82.06 163.06,81.83 C164.32,81.65 165.54,80.90 165.78,80.17 ZM 155.19 58.50 C155.41,56.58 155.48,55.00 155.32,55.00 C154.72,55.00 153.06,58.73 152.70,60.50 C152.77,59.71 153.13,58.60 153.79,57.15 C155.85,52.60 155.88,52.55 156.54,53.21 C156.84,53.51 156.51,55.61 155.80,57.88 C155.49,58.89 155.14,59.81 154.83,60.53 C154.98,60.00 155.09,59.33 155.19,58.50 ZM 113.09 107.69 C112.30,106.90 112.00,107.16 112.00,108.63 C112.00,111.28 113.40,112.68 113.84,110.48 C114.03,109.55 113.70,108.30 113.09,107.69 ZM 64.98 66.75 C64.99,67.99 64.55,69.00 64.00,69.00 C62.75,69.00 62.75,67.94 64.00,66.00 C64.78,64.79 64.97,64.93 64.98,66.75 ZM 133.58 119.13 C134.21,120.15 134.45,120.15 134.79,119.14 C135.27,117.69 134.29,116.37 133.40,117.27 C133.07,117.60 133.15,118.44 133.58,119.13 ZM 150.17 85.91 C151.13,86.05 152.11,85.58 153.00,84.50 C153.68,83.68 155.31,83.00 156.62,83.00 C156.83,83.00 157.02,82.99 157.19,82.97 C155.15,83.39 153.37,84.05 152.89,84.64 C152.06,85.63 151.11,86.06 150.17,85.91 ZM 61.12 111.63 C61.08,106.92 61.14,101.15 61.28,95.88 C61.19,100.84 61.15,106.34 61.19,110.96 C61.16,111.17 61.14,111.39 61.12,111.63 ZM 172.25 78.21 C172.63,77.24 172.68,75.80 172.51,73.71 C172.50,73.60 172.49,73.48 172.48,73.36 L 172.47 73.33 C172.50,73.54 172.52,73.75 172.53,73.96 C172.82,77.41 172.85,78.50 171.87,79.05 C172.02,78.87 172.15,78.58 172.25,78.21 ZM 59.63 58.57 C59.66,60.30 59.55,61.87 59.26,62.69 C59.22,62.80 59.16,62.89 59.10,62.97 C59.11,62.90 59.12,62.81 59.13,62.70 C59.33,62.29 59.40,61.73 59.32,61.12 C59.39,60.54 59.47,59.90 59.56,59.25 C59.59,59.02 59.61,58.79 59.63,58.57 ZM 51.46 26.90 C50.79,27.31 50.08,27.77 49.36,28.25 C48.41,28.88 47.56,29.52 46.79,30.20 C46.73,30.20 46.68,30.20 46.62,30.22 C47.96,28.98 49.54,27.91 51.46,26.90 ZM 82.81 15.43 L 82.83 15.58 C81.50,15.56 79.92,15.80 78.00,16.34 C80.18,15.64 81.56,15.36 82.81,15.43 ZM 52.75 85.53 C53.01,85.50 53.26,85.47 53.50,85.42 C54.45,85.23 55.67,85.07 56.43,85.03 C55.50,85.38 54.22,85.55 52.75,85.53 ZM 50.02 64.09 C50.30,65.09 50.69,66.03 51.16,66.63 C51.39,66.92 51.59,67.54 51.75,68.34 C51.46,67.31 51.16,66.60 50.91,66.44 C50.47,66.17 50.10,65.17 50.02,64.09 ZM 167.11 64.51 C167.50,66.01 167.90,67.54 168.29,69.07 C168.35,69.26 168.39,69.45 168.44,69.64 C168.76,70.99 168.97,72.04 169.09,72.89 C168.71,71.14 168.00,68.14 167.11,64.51 ZM 35.89 70.22 C36.06,69.21 36.29,68.08 36.56,66.79 C36.67,66.26 36.78,65.74 36.90,65.22 C36.98,64.88 37.06,64.54 37.14,64.20 C37.14,64.22 37.13,64.24 37.13,64.26 C36.71,66.31 36.26,68.51 35.89,70.22 ZM 75.60 178.12 C75.21,178.12 74.84,178.12 74.50,178.13 C73.12,178.16 71.62,178.11 70.13,177.98 C71.17,178.04 72.29,178.07 73.50,178.07 C74.15,178.06 74.87,178.09 75.60,178.12 ZM 131.32 140.52 C132.29,144.02 133.41,149.26 133.95,152.87 C134.46,156.25 135.15,159.62 135.63,161.17 C135.15,159.62 134.45,156.25 133.95,152.87 C133.46,149.66 132.39,144.65 131.32,140.52 ZM 62.33 132.06 C62.55,132.64 62.62,133.52 62.40,134.54 C62.44,133.49 62.43,132.60 62.33,132.06 ZM 57.41 63.30 C56.67,63.11 56.00,62.58 56.00,61.88 C56.00,61.78 55.97,61.65 55.92,61.49 C55.97,61.64 56.00,61.76 56.00,61.84 C56.00,62.37 56.69,62.96 57.41,63.30 ZM 60.74 132.45 C61.05,131.54 61.46,131.26 61.81,131.40 C61.53,131.41 61.19,131.68 60.89,132.14 C60.84,132.23 60.79,132.33 60.74,132.45 ZM 46.58 35.05 C45.98,35.09 45.37,35.54 44.92,36.36 C45.34,35.57 45.89,35.02 46.39,35.00 C46.45,35.00 46.52,35.02 46.58,35.05 ZM 71.49 18.70 C70.53,19.11 69.51,19.55 68.43,20.04 C68.46,20.03 68.48,20.01 68.50,20.00 C68.80,19.80 69.94,19.31 71.49,18.70 ZM 152.87 61.53 C153.36,61.97 153.77,62.09 154.10,61.88 C154.03,61.96 153.97,62.00 153.92,62.00 C153.42,62.00 153.07,61.85 152.87,61.53 ZM 158.30 39.37 C157.48,38.54 156.71,38.01 156.17,38.00 L 156.20 38.00 C156.71,38.00 157.44,38.50 158.24,39.29 C158.26,39.32 158.28,39.34 158.30,39.37 ZM 69.09 90.00 C69.10,90.00 69.11,90.00 69.12,90.00 C69.03,90.00 68.95,90.04 68.86,90.10 C68.58,90.31 68.28,90.80 68.00,91.47 C68.35,90.58 68.76,90.00 69.09,90.00 ZM 67.14 20.63 C66.46,20.93 65.65,21.25 64.84,21.55 C65.74,21.20 66.53,20.88 67.14,20.63 ZM 150.49 74.17 C150.57,73.69 150.66,73.17 150.77,72.61 C150.77,72.57 150.78,72.54 150.79,72.51 C150.80,72.44 150.82,72.38 150.84,72.32 C150.70,73.00 150.59,73.62 150.49,74.17 ZM 64.55 177.11 C64.38,177.07 64.22,177.03 64.06,176.98 C64.10,176.99 64.15,176.99 64.19,176.99 C64.30,177.03 64.42,177.07 64.55,177.11 ZM 88.16 32.76 C88.49,33.01 88.84,33.25 89.18,33.48 C89.18,33.48 89.18,33.48 89.17,33.48 C88.83,33.26 88.50,33.01 88.16,32.76 ZM 66.94 175.50 C66.89,175.48 66.85,175.46 66.81,175.43 C66.79,175.40 66.78,175.37 66.77,175.34 C66.83,175.39 66.88,175.45 66.94,175.50 ZM 31.98 78.85 C31.66,78.40 31.57,77.87 31.58,77.17 C31.57,77.86 31.66,78.39 31.98,78.85 ZM 143.27 176.86 C143.66,176.64 143.97,176.43 144.20,176.01 C143.97,176.43 143.67,176.64 143.28,176.85 ZM 100.29 17.76 C102.44,17.79 104.62,17.75 106.69,17.64 L 106.61 17.65 C104.57,17.75 102.42,17.79 100.29,17.76 ZM 160.65 42.28 C160.26,41.70 159.84,41.13 159.42,40.61 C159.44,40.64 159.46,40.66 159.48,40.69 C159.88,41.19 160.28,41.72 160.65,42.28 ZM 51.90 81.62 C51.81,81.72 51.72,81.81 51.61,81.90 C51.73,81.80 51.83,81.69 51.93,81.58 C51.92,81.59 51.91,81.61 51.90,81.62 ZM 162.31 45.17 L 162.32 45.20 C162.18,44.89 162.02,44.57 161.85,44.25 C162.02,44.56 162.17,44.87 162.31,45.17 ZM 56.91 71.92 C56.96,71.92 57.00,71.91 57.05,71.90 C57.04,71.90 57.04,71.90 57.04,71.90 C57.00,71.91 56.96,71.92 56.91,71.92 C56.91,71.92 56.91,71.92 56.91,71.92 Z" fill="rgb(195,71,70)"/>
<path d="M 62.21 131.64 C62.11,131.47 61.97,131.39 61.81,131.40 C61.49,131.27 61.13,131.49 60.84,132.18 C60.90,127.12 60.96,122.55 61.00,118.41 C61.11,119.87 61.34,121.00 61.70,121.37 C61.75,121.41 61.79,121.45 61.84,121.48 C62.08,121.69 62.36,121.61 62.68,121.27 C63.83,120.24 65.42,115.33 66.96,107.18 C70.01,90.98 70.14,90.00 69.12,90.00 C69.12,90.00 69.12,90.00 69.12,90.00 C69.11,90.00 69.10,90.00 69.09,90.00 C68.76,90.00 68.35,90.58 68.00,91.47 C67.79,91.98 67.60,92.59 67.46,93.25 C67.44,93.35 67.42,93.45 67.40,93.55 L 67.40 93.55 C67.06,94.99 66.50,96.52 66.01,97.37 C65.70,97.46 65.42,96.87 65.16,95.59 C65.27,93.84 65.72,91.07 66.50,87.49 C67.21,84.22 64.31,79.54 62.35,80.82 C62.25,80.89 62.14,81.31 62.04,82.01 C62.03,82.02 62.01,82.03 62.00,82.06 C61.92,82.02 61.83,82.00 61.74,82.00 C61.00,82.00 61.01,86.10 61.42,90.43 C61.36,92.11 61.32,93.96 61.28,95.88 C61.22,98.17 61.17,100.56 61.14,102.92 C61.27,81.55 60.89,79.87 59.75,80.24 C59.42,80.35 59.08,80.67 58.80,81.10 C58.95,80.82 59.11,80.54 59.29,80.27 C59.82,79.90 60.31,79.21 60.65,78.39 C60.78,78.30 60.90,78.15 61.02,77.97 C61.20,77.68 61.29,77.25 61.32,76.75 C61.39,76.32 61.37,75.89 61.27,75.41 C61.43,74.30 61.50,72.99 61.50,71.45 C61.50,66.61 61.18,65.47 59.75,65.19 C58.35,64.92 58.00,65.56 58.00,68.43 C58.00,68.62 58.00,68.81 57.99,68.99 C57.91,69.33 57.84,69.69 57.78,70.06 C57.74,70.27 57.70,70.49 57.66,70.72 C57.63,70.88 57.61,71.05 57.59,71.22 C57.44,71.58 57.25,71.81 57.05,71.90 C57.00,71.91 56.96,71.92 56.91,71.92 C56.73,71.89 56.54,71.78 56.36,71.59 C56.03,71.18 55.72,70.41 55.48,69.25 C55.34,68.54 55.12,67.77 54.85,66.98 C54.76,66.60 54.67,66.19 54.57,65.75 C54.35,64.76 53.90,63.92 53.37,63.44 C53.24,63.18 53.11,62.92 52.97,62.67 C52.47,61.53 51.93,60.35 51.38,59.21 C49.44,55.20 48.02,51.43 48.22,50.85 C48.42,50.25 50.73,53.12 52.78,56.12 C53.02,56.57 53.36,57.10 53.80,57.72 C53.99,57.99 54.18,58.26 54.36,58.53 C55.12,59.76 55.71,60.88 55.92,61.49 L 55.92 61.49 C55.97,61.65 56.00,61.78 56.00,61.88 C56.00,62.58 56.67,63.11 57.41,63.30 C57.45,63.32 57.49,63.34 57.53,63.36 C57.93,63.54 58.33,63.64 58.62,63.61 C58.21,64.61 58.45,65.00 59.42,65.00 C60.23,65.00 61.32,65.75 61.83,66.67 C62.60,68.04 62.89,67.77 63.47,65.11 C63.87,63.34 64.70,62.07 65.34,62.28 C66.64,62.72 66.33,67.98 64.91,69.45 C64.41,69.97 64.00,71.89 64.00,73.70 C64.00,76.70 64.27,77.00 67.00,77.00 C68.65,77.00 70.00,76.60 70.00,76.11 C70.00,74.52 73.21,73.93 74.78,75.23 C75.87,76.14 80.34,76.47 90.40,76.38 C109.65,76.22 112.62,75.77 120.58,71.79 C127.05,68.56 127.74,67.88 131.19,61.41 C138.55,47.63 138.84,46.56 137.00,39.94 C135.92,36.04 131.61,32.26 126.00,30.28 C122.71,29.11 122.20,29.24 117.50,32.46 C116.98,32.82 116.46,33.16 115.94,33.48 C115.98,33.44 116.02,33.41 116.07,33.38 C117.19,32.59 118.32,31.67 119.50,30.59 C121.70,28.59 124.40,26.76 125.50,26.53 C134.39,24.68 138.00,24.99 138.00,27.58 C138.00,28.34 139.12,29.69 140.50,30.59 C141.88,31.49 143.00,32.87 143.00,33.66 C143.00,34.44 143.92,36.07 145.04,37.27 C148.09,40.55 148.56,43.75 146.35,46.31 C143.66,49.43 140.00,54.80 140.00,55.61 C140.00,55.99 138.78,58.83 137.28,61.90 C135.78,64.98 134.10,69.30 133.53,71.50 C132.96,73.70 131.98,75.50 131.33,75.50 C129.08,75.50 128.54,77.18 128.84,83.20 C129.03,87.06 129.80,90.22 130.97,91.88 C133.05,94.84 135.44,109.39 134.21,111.59 C133.55,112.76 133.10,112.79 131.67,111.74 C129.47,110.14 125.00,97.99 125.00,93.61 C125.00,91.74 124.13,89.30 123.00,88.00 C121.90,86.73 121.00,85.09 121.00,84.35 C121.00,83.61 120.56,83.00 120.01,83.00 C118.67,83.00 119.49,91.70 121.98,103.90 C123.09,109.35 124.00,114.64 124.01,115.66 C124.01,116.67 124.64,118.71 125.41,120.18 C125.94,121.20 126.55,122.79 127.00,124.28 C128.11,129.12 129.48,134.37 130.98,139.32 C131.09,139.69 131.20,140.09 131.32,140.52 C132.39,144.65 133.46,149.66 133.95,152.87 C134.45,156.25 135.15,159.62 135.63,161.17 C135.72,161.48 135.81,161.72 135.89,161.87 C137.71,165.45 137.96,169.80 136.38,170.41 C135.54,170.73 134.75,170.92 134.01,170.98 C130.62,171.12 128.97,167.09 125.60,153.50 C117.98,122.68 115.78,112.69 114.50,103.01 C113.13,92.63 111.51,87.00 109.90,87.00 C108.80,87.00 107.67,95.40 108.45,97.84 C108.80,98.96 109.54,106.76 110.08,115.19 C112.15,147.35 112.66,153.27 114.10,161.69 C114.13,161.85 114.16,162.01 114.19,162.17 C114.89,166.24 115.30,168.63 114.30,170.02 C112.89,172.00 108.61,171.93 98.23,171.76 C97.95,171.76 97.67,171.75 97.38,171.75 C88.92,171.61 82.00,171.20 82.00,170.83 C82.00,170.46 82.49,167.76 83.09,164.83 C86.89,146.29 88.64,139.58 90.23,137.37 C90.68,136.74 90.75,131.32 90.39,125.31 C89.85,116.53 90.03,113.71 91.27,110.94 C92.12,109.05 93.05,106.82 93.33,106.00 C93.62,105.17 93.88,105.65 93.92,107.10 C94.02,110.30 96.99,113.24 98.92,112.05 C99.97,111.40 100.14,109.70 99.64,104.83 C99.07,99.21 99.23,98.25 101.00,96.74 C103.40,94.67 103.61,91.44 101.40,90.21 C99.14,88.94 95.19,89.91 94.67,91.86 C94.35,93.06 94.20,92.95 94.12,91.42 C94.05,90.28 92.90,88.32 91.56,87.06 L 89.12 84.76 L 85.74 86.85 C82.58,88.80 82.26,88.83 80.69,87.26 C78.46,85.03 76.66,86.80 77.55,90.36 C78.27,93.22 80.00,93.98 80.00,91.43 C80.00,90.48 80.68,89.98 81.71,90.18 C84.57,90.73 85.47,97.30 84.04,106.97 C83.34,111.66 82.44,117.97 82.04,121.00 C81.04,128.44 77.15,153.84 75.61,163.00 C74.74,168.12 74.27,168.51 64.93,171.61 C64.85,171.63 64.77,171.64 64.70,171.65 C64.59,171.67 64.48,171.69 64.38,171.70 C63.16,171.57 63.72,168.26 66.81,155.30 C67.88,150.79 68.55,146.89 68.30,146.63 C68.05,146.38 68.26,145.35 68.78,144.34 C69.30,143.33 69.98,139.89 70.30,136.69 C70.84,131.14 70.77,130.89 68.68,131.19 C67.22,131.40 66.39,132.33 66.17,134.00 C65.81,136.69 64.00,139.31 64.00,137.14 C64.00,136.45 63.48,136.20 62.85,136.59 C62.57,136.77 62.37,136.81 62.25,136.71 C62.32,135.95 62.37,135.21 62.40,134.54 C62.62,133.52 62.55,132.64 62.33,132.06 C62.30,131.88 62.26,131.74 62.21,131.64 ZM 59.75 56.87 C59.75,56.01 59.64,55.34 59.36,54.72 C59.13,52.91 58.78,51.46 58.37,51.20 C56.53,50.00 55.12,46.50 53.70,39.61 L 52.33 32.97 L 56.84 29.98 C59.32,28.34 62.17,27.00 63.19,27.00 C64.21,27.00 67.28,25.83 70.03,24.39 C74.75,21.92 75.15,21.87 77.50,23.41 C78.61,24.13 80.87,26.07 83.00,28.09 C83.70,28.99 84.45,29.86 85.14,30.54 C81.51,28.04 79.10,27.82 76.53,29.62 C75.44,30.38 73.84,31.00 72.96,31.00 C72.08,31.00 69.51,32.43 67.24,34.17 C62.23,38.02 60.28,43.29 59.90,54.00 C59.87,54.97 59.81,55.94 59.75,56.87 ZM 129.49 161.37 C130.94,166.12 132.51,170.00 132.98,170.00 C134.55,170.00 134.72,167.54 133.45,163.00 C132.77,160.52 131.90,156.06 131.54,153.07 C130.90,147.74 128.61,137.94 125.48,127.00 C124.61,123.97 123.51,119.21 123.03,116.42 C121.60,108.05 117.90,96.94 116.78,97.64 C115.39,98.49 116.51,108.80 119.07,118.66 C120.18,122.97 121.52,128.52 122.03,131.00 C124.62,143.45 127.11,153.57 129.49,161.37 ZM 151.90 67.23 C151.97,66.68 151.93,66.37 151.71,66.24 C151.54,66.14 151.27,66.15 150.86,66.25 C150.81,66.26 150.76,66.27 150.71,66.29 L 150.71 66.29 C150.54,66.33 150.35,66.39 150.14,66.46 C150.05,66.48 149.96,66.51 149.88,66.53 C149.53,66.63 149.23,66.68 148.99,66.67 C147.14,66.62 148.11,63.50 152.50,54.23 C157.16,44.40 157.85,41.25 155.80,39.20 C155.40,38.80 155.18,38.52 155.17,38.33 C155.23,38.14 155.60,38.00 156.17,38.00 C156.71,38.01 157.48,38.54 158.30,39.37 C158.54,39.64 158.81,39.94 159.11,40.27 C159.22,40.38 159.32,40.50 159.42,40.61 C159.84,41.13 160.25,41.69 160.64,42.27 L 160.65 42.28 C161.09,42.93 161.50,43.60 161.85,44.25 L 161.85 44.26 C162.02,44.58 162.18,44.89 162.32,45.20 C162.44,45.50 162.52,45.77 162.57,46.00 C162.65,46.42 162.79,47.05 162.98,47.87 C162.93,48.87 162.66,49.02 162.21,48.30 C160.29,45.28 158.99,49.36 157.68,62.58 C156.81,71.39 155.94,76.72 154.83,79.22 C153.38,80.95 152.84,81.06 151.65,80.12 C150.93,79.32 150.48,78.68 150.30,77.79 C150.18,76.92 150.24,75.77 150.49,74.17 C150.59,73.62 150.70,73.00 150.84,72.32 C151.54,69.70 151.91,68.12 151.90,67.23 ZM 167.11 64.51 C168.00,68.14 168.71,71.14 169.09,72.89 C169.20,73.66 169.23,74.26 169.20,74.77 C168.03,75.68 162.01,75.82 161.36,74.77 C160.63,73.59 161.91,65.04 163.17,62.69 C163.83,61.45 163.76,60.42 162.96,59.45 C161.72,57.95 162.30,55.00 163.84,55.00 C164.13,55.00 164.57,55.71 165.01,56.79 C165.77,59.55 166.41,61.88 166.94,63.85 C167.00,64.07 167.06,64.29 167.11,64.51 ZM 35.49 74.36 L 36.49 72.14 C37.32,70.28 37.97,67.58 37.94,66.14 C37.88,63.80 37.78,63.73 37.08,65.50 C36.89,65.99 36.65,66.79 36.42,67.72 C36.65,66.59 36.90,65.40 37.13,64.26 C37.13,64.24 37.14,64.22 37.14,64.20 C37.49,62.78 37.84,61.43 38.16,60.33 C38.56,59.25 38.92,58.85 39.18,59.26 C39.79,60.21 39.97,60.18 39.98,59.13 C40.00,58.10 40.34,58.03 41.32,58.85 C42.21,59.59 42.62,62.33 42.56,67.22 L 42.48 74.50 L 38.62 74.82 C37.88,74.88 37.28,74.92 36.81,74.93 C36.24,74.81 35.79,74.71 35.51,74.63 C35.50,74.54 35.50,74.45 35.49,74.36 ZM 48.53 59.44 C48.92,59.96 49.28,60.66 49.54,61.39 C49.60,62.22 49.76,63.18 50.02,64.09 C50.10,65.17 50.47,66.17 50.91,66.44 C51.16,66.60 51.46,67.31 51.75,68.34 C52.41,71.49 52.56,77.48 51.75,77.75 C51.34,77.89 50.03,76.54 48.85,74.75 C48.84,74.73 48.83,74.72 48.82,74.70 C47.81,71.45 47.05,66.54 47.06,62.50 C47.06,57.89 47.18,57.65 48.53,59.44 ZM 47.05 35.36 C47.50,35.76 48.03,36.47 48.54,37.30 C48.55,38.24 48.00,39.43 47.03,40.47 C45.91,41.66 45.00,43.67 45.00,44.95 C45.00,46.23 43.88,48.31 42.50,49.59 C41.57,50.45 40.76,51.12 40.33,51.39 C40.67,49.70 41.25,47.61 41.90,45.79 C42.70,43.56 43.55,40.92 44.06,39.13 C44.24,39.51 44.97,39.04 45.92,37.86 C46.81,36.77 47.23,35.81 47.05,35.36 ZM 88.41 179.40 L 88.43 179.39 L 88.44 179.38 C88.50,179.36 88.56,179.34 88.62,179.31 C92.25,179.13 95.69,178.39 96.30,177.35 C97.43,175.44 107.40,175.55 109.35,177.49 C109.98,178.12 111.01,178.47 113.54,178.60 C101.46,178.88 90.77,179.23 89.00,179.41 C88.76,179.43 88.51,179.45 88.24,179.46 C88.30,179.44 88.35,179.42 88.41,179.40 ZM 66.83 111.49 C67.76,112.43 68.36,111.00 69.23,105.74 C70.88,95.84 71.14,92.41 70.14,94.00 C68.97,95.87 66.14,110.80 66.83,111.49 ZM 152.64 76.23 C153.78,78.08 154.77,76.67 155.36,72.36 C156.29,65.63 156.19,63.41 155.01,64.59 C153.85,65.75 151.95,75.11 152.64,76.23 ZM 67.56 159.75 C67.47,164.40 68.62,163.76 69.35,158.75 C69.69,156.41 70.26,153.49 70.60,152.25 C70.96,150.96 70.79,150.00 70.20,150.00 C69.00,150.00 67.66,154.99 67.56,159.75 ZM 152.87 61.53 C153.07,61.85 153.42,62.00 153.92,62.00 C153.97,62.00 154.03,61.96 154.10,61.88 C154.40,61.69 154.64,61.25 154.83,60.53 C155.14,59.81 155.49,58.89 155.80,57.88 C156.51,55.61 156.84,53.51 156.54,53.21 C155.88,52.55 155.85,52.60 153.79,57.15 C153.13,58.60 152.77,59.71 152.70,60.50 C152.61,60.94 152.60,61.26 152.71,61.37 C152.76,61.43 152.82,61.48 152.87,61.53 ZM 50.27 80.01 C50.59,80.01 50.88,80.02 51.13,80.04 C52.45,80.40 52.55,80.80 51.93,81.58 C51.83,81.69 51.73,81.80 51.61,81.90 C51.30,82.18 50.92,82.40 50.53,82.54 C49.78,82.52 49.08,82.54 48.44,82.59 C48.17,82.32 48.00,81.93 48.00,81.50 C48.00,80.62 48.82,80.08 50.27,80.01 ZM 64.71 168.00 C64.37,169.30 64.68,170.00 65.59,170.00 C66.37,170.00 67.00,169.10 67.00,168.00 C67.00,166.90 66.60,166.00 66.12,166.00 C65.63,166.00 65.00,166.90 64.71,168.00 ZM 72.00 140.12 C72.00,141.22 72.45,141.84 73.00,141.50 C73.55,141.16 74.00,139.98 74.00,138.88 C74.00,137.78 73.55,137.16 73.00,137.50 C72.45,137.84 72.00,139.02 72.00,140.12 ZM 66.37 174.54 C66.31,174.29 66.28,174.08 66.29,173.90 C66.34,173.55 66.64,173.34 67.42,173.23 C68.19,173.50 69.00,174.30 69.00,175.06 C69.00,175.46 68.83,175.73 68.57,175.86 C67.87,175.77 67.29,175.65 66.94,175.50 C66.88,175.45 66.83,175.39 66.77,175.34 C66.67,175.07 66.53,174.80 66.37,174.54 ZM 64.98 66.75 C64.97,64.93 64.78,64.79 64.00,66.00 C62.75,67.94 62.75,69.00 64.00,69.00 C64.55,69.00 64.99,67.99 64.98,66.75 ZM 133.58 119.13 C133.15,118.44 133.07,117.60 133.40,117.27 C134.29,116.37 135.27,117.69 134.79,119.14 C134.45,120.15 134.21,120.15 133.58,119.13 ZM 97.89 36.96 C100.75,37.49 103.59,37.56 106.34,37.19 C103.15,37.74 99.95,37.60 96.80,36.79 C97.15,36.85 97.52,36.91 97.89,36.96 ZM 60.53 163.29 C60.52,161.96 60.52,160.50 60.53,158.89 C60.56,160.35 60.59,161.78 60.63,163.15 C60.59,163.19 60.56,163.24 60.53,163.29 ZM 60.98 172.29 C60.90,171.74 60.83,171.12 60.77,170.43 C60.81,170.46 60.85,170.49 60.89,170.51 C60.92,171.15 60.95,171.75 60.98,172.29 ZM 52.75 85.53 C53.50,85.54 54.19,85.50 54.82,85.42 C54.01,85.57 53.09,85.62 52.09,85.57 C52.31,85.56 52.54,85.55 52.75,85.53 ZM 61.12 111.63 C61.10,111.84 61.08,112.07 61.07,112.30 C61.08,110.81 61.09,109.38 61.11,108.02 C61.10,109.27 61.11,110.48 61.12,111.63 ZM 58.36 82.03 C58.29,82.25 58.23,82.48 58.20,82.71 C58.16,82.96 58.09,83.18 58.00,83.40 C58.00,83.05 58.14,82.57 58.36,82.03 ZM 87.03 31.95 C87.07,31.96 87.11,31.97 87.14,31.98 C87.42,32.20 87.71,32.43 88.00,32.64 C87.68,32.42 87.36,32.19 87.03,31.95 ZM 64.55 177.11 C64.77,177.18 65.01,177.24 65.27,177.31 C65.18,177.29 65.09,177.27 65.01,177.25 C64.65,177.16 64.33,177.08 64.02,176.98 C64.03,176.98 64.05,176.98 64.06,176.98 C64.22,177.03 64.38,177.07 64.55,177.11 ZM 46.58 35.05 C46.62,35.06 46.65,35.08 46.68,35.09 C46.57,35.07 46.45,35.07 46.34,35.09 C46.42,35.07 46.50,35.05 46.58,35.05 ZM 144.18 176.06 C144.19,176.04 144.20,176.03 144.20,176.01 C144.25,175.94 144.29,175.85 144.33,175.76 C144.34,175.75 144.34,175.74 144.35,175.73 C144.29,175.85 144.24,175.96 144.18,176.06 ZM 143.16 176.91 C143.17,176.91 143.18,176.90 143.20,176.89 C143.18,176.91 143.16,176.92 143.14,176.93 C143.13,176.93 143.14,176.92 143.16,176.91 Z" fill="rgb(204,75,76)"/>
<path d="M 113.12 35.26 C113.95,34.84 114.95,34.20 115.94,33.48 C116.46,33.16 116.98,32.82 117.50,32.46 C122.20,29.24 122.71,29.11 126.00,30.28 C131.61,32.26 135.92,36.04 137.00,39.94 C138.84,46.56 138.55,47.63 131.19,61.41 C127.74,67.88 127.05,68.56 120.58,71.79 C112.62,75.77 109.65,76.22 90.40,76.38 C80.34,76.47 75.87,76.14 74.78,75.23 C73.21,73.93 70.00,74.52 70.00,76.11 C70.00,76.60 68.65,77.00 67.00,77.00 C64.27,77.00 64.00,76.70 64.00,73.70 C64.00,71.89 64.41,69.97 64.91,69.45 C66.33,67.98 66.64,62.72 65.34,62.28 C64.70,62.07 63.87,63.34 63.47,65.11 C62.89,67.77 62.60,68.04 61.83,66.67 C61.32,65.75 60.23,65.00 59.42,65.00 C58.45,65.00 58.21,64.61 58.62,63.61 C58.79,63.59 58.93,63.53 59.00,63.41 C59.04,63.36 59.06,63.30 59.07,63.22 C59.08,63.17 59.09,63.08 59.10,62.97 C59.16,62.89 59.22,62.80 59.26,62.69 C59.55,61.87 59.66,60.30 59.63,58.57 C59.63,58.52 59.63,58.48 59.63,58.44 C59.70,57.85 59.74,57.33 59.75,56.87 C59.81,55.94 59.87,54.97 59.90,54.00 C60.28,43.29 62.23,38.02 67.24,34.17 C69.51,32.43 72.08,31.00 72.96,31.00 C73.84,31.00 75.44,30.38 76.53,29.62 C79.10,27.82 81.51,28.04 85.14,30.54 C85.87,31.26 86.54,31.78 87.03,31.95 C87.36,32.19 87.68,32.42 88.00,32.64 C88.50,33.01 88.83,33.26 89.17,33.48 C88.87,33.74 89.72,34.34 91.75,35.16 C92.23,35.36 92.71,35.54 93.19,35.71 C93.41,35.81 93.64,35.90 93.86,35.99 C94.69,36.32 95.69,36.59 96.80,36.79 C99.95,37.60 103.15,37.74 106.34,37.19 C107.36,37.05 108.37,36.85 109.37,36.59 C110.39,36.37 111.31,36.09 112.09,35.76 C112.42,35.62 112.76,35.45 113.12,35.26 ZM 129.49 161.37 C127.11,153.57 124.62,143.45 122.03,131.00 C121.52,128.52 120.18,122.97 119.07,118.66 C116.51,108.80 115.39,98.49 116.78,97.64 C117.90,96.94 121.60,108.05 123.03,116.42 C123.51,119.21 124.61,123.97 125.48,127.00 C128.61,137.94 130.90,147.74 131.54,153.07 C131.90,156.06 132.77,160.52 133.45,163.00 C134.72,167.54 134.55,170.00 132.98,170.00 C132.51,170.00 130.94,166.12 129.49,161.37 ZM 66.83 111.49 C66.14,110.80 68.97,95.87 70.14,94.00 C71.14,92.41 70.88,95.84 69.23,105.74 C68.36,111.00 67.76,112.43 66.83,111.49 ZM 152.64 76.23 C151.95,75.11 153.85,65.75 155.01,64.59 C156.19,63.41 156.29,65.63 155.36,72.36 C154.77,76.67 153.78,78.08 152.64,76.23 ZM 67.56 159.75 C67.66,154.99 69.00,150.00 70.20,150.00 C70.79,150.00 70.96,150.96 70.60,152.25 C70.26,153.49 69.69,156.41 69.35,158.75 C68.62,163.76 67.47,164.40 67.56,159.75 ZM 35.89 70.22 C36.05,69.46 36.23,68.61 36.42,67.72 C36.65,66.79 36.89,65.99 37.08,65.50 C37.78,63.73 37.88,63.80 37.94,66.14 C37.97,67.58 37.32,70.28 36.49,72.14 L 35.49 74.36 C35.44,73.30 35.59,71.96 35.89,70.22 ZM 64.71 168.00 C65.00,166.90 65.63,166.00 66.12,166.00 C66.60,166.00 67.00,166.90 67.00,168.00 C67.00,169.10 66.37,170.00 65.59,170.00 C64.68,170.00 64.37,169.30 64.71,168.00 ZM 72.00 140.12 C72.00,139.02 72.45,137.84 73.00,137.50 C73.55,137.16 74.00,137.78 74.00,138.88 C74.00,139.98 73.55,141.16 73.00,141.50 C72.45,141.84 72.00,141.22 72.00,140.12 ZM 47.05 35.36 C47.23,35.81 46.81,36.77 45.92,37.86 C44.97,39.04 44.24,39.51 44.06,39.13 C44.22,38.58 44.34,38.11 44.42,37.75 C44.53,37.25 44.71,36.77 44.92,36.36 C45.31,35.65 45.82,35.22 46.34,35.09 C46.45,35.07 46.57,35.07 46.68,35.09 C46.80,35.15 46.92,35.24 47.05,35.36 Z" fill="rgb(216,86,86)"/>
<path d="M 0.00 96.00 L 0.00 0.00 L 102.00 0.00 L 204.00 0.00 L 204.00 96.00 L 204.00 192.00 L 102.00 192.00 L 0.00 192.00 L 0.00 96.00 ZM 116.81 178.53 C131.25,178.22 141.94,177.57 143.14,176.93 C145.09,175.88 145.13,175.24 144.48,155.17 C144.10,143.80 143.57,123.41 143.28,109.85 C142.77,85.89 142.82,85.17 144.78,84.12 C146.32,83.29 147.07,83.38 148.02,84.52 C149.55,86.37 151.41,86.41 152.89,84.64 C153.51,83.89 156.23,83.01 158.93,82.69 C161.64,82.37 164.67,81.66 165.67,81.12 C166.68,80.57 168.73,79.86 170.23,79.55 C172.83,79.00 172.94,78.75 172.53,73.96 C172.30,71.21 171.68,67.50 171.15,65.73 C170.62,63.95 169.51,60.03 168.69,57.00 C167.86,53.97 166.45,48.80 165.54,45.50 C161.89,32.15 158.44,28.46 145.35,23.87 C142.13,22.74 139.05,21.45 138.50,21.01 C137.95,20.57 134.07,19.03 129.88,17.59 C122.31,14.99 122.21,14.98 115.38,16.59 C107.72,18.39 91.00,18.07 85.31,16.00 C82.62,15.03 81.15,15.20 75.81,17.09 C72.34,18.33 69.05,19.64 68.50,20.00 C67.95,20.36 64.02,21.91 59.77,23.43 C45.79,28.42 42.79,31.74 38.86,46.50 C37.83,50.35 36.79,54.17 36.54,55.00 C33.36,65.48 31.73,72.73 31.58,77.00 C31.51,79.20 32.22,79.73 37.50,81.40 C40.80,82.45 44.40,83.65 45.50,84.07 C51.97,86.54 57.72,85.93 58.20,82.71 C58.36,81.58 59.06,80.47 59.75,80.24 C61.42,79.69 61.47,83.58 60.64,147.90 C60.29,175.04 60.46,176.17 65.01,177.25 C66.93,177.70 70.75,178.07 73.50,178.07 C76.25,178.06 80.07,178.44 82.00,178.91 C83.93,179.38 87.07,179.60 89.00,179.41 C90.93,179.21 103.44,178.81 116.81,178.53 Z" fill="rgb(254,254,254)"/>
</g>
</svg>